<svg width="306.777" height="306.777" xml:space="preserve" xmlns:xlink="http://www.w3.org/1999/xlink" xmlns="http://www.w3.org/2000/svg">
    <defs>
        <linearGradient id="d">
            <stop style="stop-color:#fff;stop-opacity:.05118602" offset="0"/>
            <stop style="stop-color:#fff;stop-opacity:.15230961" offset="1"/>
        </linearGradient>
        <linearGradient id="c">
            <stop style="stop-color:#000;stop-opacity:.40000001" offset="0"/>
            <stop style="stop-color:#000;stop-opacity:.30000001" offset="1"/>
        </linearGradient>
        <linearGradient id="b">
            <stop style="stop-color:#fff;stop-opacity:1" offset="0"/>
            <stop style="stop-color:#dadada;stop-opacity:1" offset="1"/>
        </linearGradient>
        <linearGradient id="a">
            <stop style="stop-color:#008cda;stop-opacity:1" offset="0"/>
            <stop style="stop-color:#0076b6;stop-opacity:1" offset="1"/>
        </linearGradient>
        <linearGradient xlink:href="#a" id="e" x1="455.212" y1="308.779" x2="455.212" y2="751.098" gradientUnits="userSpaceOnUse"/>
        <linearGradient xlink:href="#b" id="f" x1="454.834" y1="308.779" x2="454.834" y2="751.098" gradientUnits="userSpaceOnUse"/>
        <linearGradient xlink:href="#a" id="g" x1="455.212" y1="308.779" x2="455.212" y2="751.098" gradientUnits="userSpaceOnUse"/>
        <linearGradient xlink:href="#b" id="h" x1="454.834" y1="308.779" x2="454.834" y2="751.098" gradientUnits="userSpaceOnUse"/>
        <linearGradient xlink:href="#c" id="i" x1="455.212" y1="308.779" x2="455.212" y2="751.098" gradientUnits="userSpaceOnUse"/>
        <linearGradient xlink:href="#d" id="j" x1="454.834" y1="308.779" x2="454.834" y2="751.098" gradientUnits="userSpaceOnUse"/>
    </defs>
    <path style="fill:#000;fill-opacity:.5;stroke-linecap:round;paint-order:markers fill stroke" d="M388.91 247.689a15.651 15.651 0 0 0-15.652 15.651v45.438h31.303V263.34a15.651 15.651 0 0 0-15.651-15.651zm106.064 0a15.651 15.651 0 0 0-15.651 15.651v45.438h31.303V263.34a15.651 15.651 0 0 0-15.652-15.651zm106.065 0a15.651 15.651 0 0 0-15.648 15.651v45.438h31.3V263.34a15.651 15.651 0 0 0-15.652-15.651ZM228.375 408.223a15.651 15.651 0 0 0-15.651 15.648 15.651 15.651 0 0 0 15.651 15.652h45.439v-31.3Zm487.76 0v31.3h45.438a15.651 15.651 0 0 0 15.652-15.652 15.651 15.651 0 0 0-15.652-15.648zm-487.76 212.132a15.651 15.651 0 0 0-15.651 15.649 15.651 15.651 0 0 0 15.651 15.651h45.439v-31.3zm487.76 0v31.3h45.438a15.651 15.651 0 0 0 15.652-15.651 15.651 15.651 0 0 0-15.652-15.649zM373.258 751.1v45.438a15.651 15.651 0 0 0 15.652 15.651 15.651 15.651 0 0 0 15.651-15.651V751.1zm106.065 0v45.438a15.651 15.651 0 0 0 15.651 15.651 15.651 15.651 0 0 0 15.652-15.651V751.1zm106.068 0v45.438a15.651 15.651 0 0 0 15.648 15.651 15.651 15.651 0 0 0 15.651-15.651V751.1z" transform="matrix(.54345 0 0 .54345 -115.604 -134.606)"/>
    <path style="display:inline;opacity:1;fill:url(#i);fill-opacity:1;stroke-width:60.9187;stroke-linecap:round;stroke-linejoin:round;paint-order:markers fill stroke" d="M353.944 308.778c-44.391 0-80.13 35.74-80.13 80.131v70.97h112.968v-30.297c.002-11.792 9.55-21.357 21.34-21.38 0 0 13.707-.027 30.517.876 16.81.904 36.174 2.26 52.32 7.059 29.948 8.898 52.47 21.908 72.21 40.622 25.366 24.048 35.175 52.432 38.305 63.875h114.66V388.91c0-44.391-35.738-80.13-80.13-80.13zm-80.13 169.707v102.901h112.968V478.485zm327.66 60.755c-3.13 11.443-12.94 39.824-38.305 63.872-19.739 18.713-42.26 31.727-72.21 40.626-16.146 4.798-35.51 6.155-52.32 7.058-16.81.9-30.516.88-30.516.88-11.794-.022-21.342-9.59-21.341-21.383v-30.297H273.814v70.973c0 44.391 35.739 80.13 80.13 80.13h282.06c44.392 0 80.13-35.739 80.13-80.13V539.24Z" transform="matrix(.54345 0 0 .54345 -115.604 -134.606)"/>
    <path style="display:inline;fill:url(#j);stroke-width:7.03142;stroke-linecap:round;stroke-linejoin:round;paint-order:markers fill stroke" d="M408.123 408.202c-11.792.023-21.34 9.587-21.341 21.38v30.297H273.815v18.607h112.967v102.902H273.815v18.607h112.967v30.298c0 11.794 9.548 21.361 21.341 21.384 0 0 13.705.02 30.515-.88 16.81-.903 36.175-2.262 52.322-7.06 29.949-8.899 52.471-21.91 72.21-40.624 25.366-24.047 35.173-52.428 38.302-63.871h114.663v-18.607H601.472c-3.129-11.444-12.936-39.827-38.302-63.874-19.74-18.715-42.262-31.726-72.21-40.624-16.147-4.798-35.512-6.154-52.322-7.057-16.81-.904-30.515-.878-30.515-.878z" transform="matrix(.54345 0 0 .54345 -115.604 -134.606)"/>
</svg>
