<svg width="1131.59" height="306.777" xml:space="preserve" xmlns:xlink="http://www.w3.org/1999/xlink" xmlns="http://www.w3.org/2000/svg">
    <defs>
        <linearGradient id="b">
            <stop style="stop-color:#fff;stop-opacity:1" offset="0"/>
            <stop style="stop-color:#dadada;stop-opacity:1" offset="1"/>
        </linearGradient>
        <linearGradient id="a">
            <stop style="stop-color:#008cda;stop-opacity:1" offset="0"/>
            <stop style="stop-color:#0076b6;stop-opacity:1" offset="1"/>
        </linearGradient>
        <linearGradient xlink:href="#a" id="c" x1="455.212" y1="308.779" x2="455.212" y2="751.098" gradientUnits="userSpaceOnUse"/>
        <linearGradient xlink:href="#b" id="d" x1="454.834" y1="308.779" x2="454.834" y2="751.098" gradientUnits="userSpaceOnUse"/>
        <linearGradient xlink:href="#a" id="e" x1="455.212" y1="308.779" x2="455.212" y2="751.098" gradientUnits="userSpaceOnUse"/>
        <linearGradient xlink:href="#b" id="f" x1="454.834" y1="308.779" x2="454.834" y2="751.098" gradientUnits="userSpaceOnUse"/>
    </defs>
    <g transform="matrix(.54345 0 0 .54345 -115.605 -134.605)">
        <path style="fill:#0068a1;stroke-linecap:round;paint-order:markers fill stroke" d="M388.91 247.687a15.651 15.651 0 0 0-15.652 15.654v144.883H228.375a15.651 15.651 0 0 0-15.65 15.648 15.651 15.651 0 0 0 15.65 15.651h144.883v180.832H228.375a15.651 15.651 0 0 0-15.65 15.648 15.651 15.651 0 0 0 15.65 15.651h144.883v144.883a15.651 15.651 0 0 0 15.651 15.651 15.651 15.651 0 0 0 15.651-15.651V651.654h74.763v144.883a15.651 15.651 0 0 0 15.652 15.651 15.651 15.651 0 0 0 15.65-15.651V651.654h74.764v144.883a15.651 15.651 0 0 0 15.651 15.651 15.651 15.651 0 0 0 15.651-15.651V651.654h144.883a15.651 15.651 0 0 0 15.651-15.65 15.651 15.651 0 0 0-15.651-15.65H616.69v-180.83h144.883a15.651 15.651 0 0 0 15.651-15.652 15.651 15.651 0 0 0-15.651-15.648H616.69V263.34a15.651 15.651 0 0 0-15.65-15.654 15.651 15.651 0 0 0-15.652 15.654v144.883h-74.763V263.34a15.651 15.651 0 0 0-15.651-15.654 15.651 15.651 0 0 0-15.652 15.654v144.883H404.56V263.34a15.651 15.651 0 0 0-15.65-15.654zm15.65 191.836h74.763v180.832H404.56zm106.066 0h74.763v180.832h-74.763Z"/>
        <rect style="fill:url(#e);fill-opacity:1;stroke-width:60.9187;stroke-linecap:round;stroke-linejoin:round;paint-order:markers fill stroke" width="442.32" height="442.32" x="273.815" y="308.779" ry="80.129"/>
        <path style="fill:url(#f);stroke-width:7.03142;stroke-linecap:round;stroke-linejoin:round;paint-order:markers fill stroke" d="M408.123 408.202c-11.792.023-21.34 9.587-21.341 21.38v30.297H273.815v18.607h112.967v102.902H273.815v18.607h112.967v30.298c0 11.794 9.548 21.361 21.341 21.384 0 0 13.705.02 30.515-.88 16.81-.903 36.175-2.262 52.322-7.06 29.949-8.899 52.471-21.91 72.21-40.624 25.366-24.047 35.173-52.428 38.302-63.871h114.663v-18.607H601.472c-3.129-11.444-12.936-39.827-38.302-63.874-19.74-18.715-42.262-31.726-72.21-40.624-16.147-4.798-35.512-6.154-52.322-7.057-16.81-.904-30.515-.878-30.515-.878z"/>
    </g>
    <g style="font-weight:500;font-size:240.521px;line-height:1;font-family:Montserrat;-inkscape-font-specification:'Montserrat Medium';letter-spacing:-10.22px;word-spacing:8.19958px;stroke-width:245.988;stroke-linecap:round;stroke-linejoin:round;paint-order:markers fill stroke" aria-label="DigiLab">
        <path style="font-weight:400;font-family:Rajdhani;-inkscape-font-specification:Rajdhani" d="M597.533 829.72h-76.485q-2.406 0-2.406-2.887V677.951q0-2.887 2.406-2.887h6.975q2.645 0 2.645 2.887v138.3q0 2.164 2.406 2.164h64.46q2.886 0 2.886 2.646v6.013q0 2.645-2.887 2.645zm63.62 0H645.76q-15.634 0-24.774-9.14-8.899-9.14-8.899-25.015v-54.357q0-15.875 8.9-25.014 9.14-9.14 24.773-9.14h50.99q2.406 0 2.406 2.886v116.893q0 2.886-2.406 2.886h-6.975q-2.645 0-2.645-2.886v-9.62h-.963q-6.253 12.506-25.014 12.506zm25.977-34.395v-75.283q0-2.165-2.406-2.165h-38.002q-11.064 0-16.836 6.254-5.773 6.253-5.773 17.558v53.395q0 11.305 5.773 17.558 5.772 6.254 16.836 6.254h15.634q11.545 0 18.039-6.013 6.735-6.254 6.735-17.558zm52.315 23.571h38.243q11.064 0 16.836-6.013 6.014-6.254 6.014-17.799v-55.56q0-11.304-6.014-17.317-5.772-6.254-16.836-6.254h-15.874q-11.545 0-18.28 6.254-6.494 6.013-6.494 17.317v77.207q0 2.165 2.405 2.165zm-14.431 7.937V663.52q0-2.886 2.405-2.886h6.975q2.646 0 2.646 2.886v54.118h.962q6.735-12.507 25.014-12.507h15.875q15.633 0 24.533 9.14 9.14 9.14 9.14 24.773v56.522q0 15.875-9.14 25.015-8.9 9.14-24.533 9.14h-51.472q-2.405 0-2.405-2.887z" transform="matrix(1.18216 0 0 1.18216 171.006 -749.71)"/>
        <path style="font-weight:600;font-size:240.521px;line-height:1;font-family:Rajdhani;-inkscape-font-specification:'Rajdhani Semi-Bold';letter-spacing:-10.22px;word-spacing:8.19958px;fill:#0068a1;fill-opacity:1;stroke-width:245.988;stroke-linecap:round;stroke-linejoin:round;paint-order:markers fill stroke" d="M213.413 809.275h33.913q17.318 0 17.318-17.798v-78.17q0-17.798-17.318-17.798h-33.913q-2.646 0-2.646 2.405v108.715q0 2.646 2.646 2.646zm-25.977 16.356V679.153q0-4.089 4.09-4.089h59.167q17.558 0 27.42 9.862 10.102 9.62 10.102 27.42v80.093q0 17.558-10.102 27.42-9.862 9.86-27.42 9.86h-59.168q-4.089 0-4.089-4.088zm122.067-139.022v-21.887q0-3.848 3.848-3.848h15.634q3.849 0 3.849 3.848v21.887q0 4.09-3.849 4.09h-15.634q-3.848 0-3.848-4.09zm0 139.022V711.143q0-4.09 3.848-4.09h15.394q4.089 0 4.089 4.09V825.63q0 2.405-.962 3.367-.722.721-2.887.721h-15.393q-4.089 0-4.089-4.088zm89.356-1.925h-10.824q-17.317 0-26.698-9.62-9.14-9.862-9.14-27.66v-42.092q0-17.798 9.862-27.419 9.861-9.861 27.42-9.861h53.876q4.33 0 4.33 4.089V830.2q0 17.558-10.102 27.18-9.862 9.86-27.42 9.86h-45.218q-4.089 0-4.089-3.848v-12.507q0-4.089 4.09-4.089h41.61q17.557 0 17.557-17.798v-18.28h-.962q-6.013 12.988-24.292 12.988zm25.254-40.888v-52.915q0-2.405-2.645-2.405h-28.622q-17.077 0-17.077 17.799v39.926q0 17.799 17.077 17.799h11.545q19.722 0 19.722-20.204zm44.62-96.209v-21.887q0-3.848 3.848-3.848h15.633q3.849 0 3.849 3.848v21.887q0 4.09-3.849 4.09h-15.633q-3.849 0-3.849-4.09zm0 139.022V711.143q0-4.09 3.848-4.09h15.393q4.089 0 4.089 4.09V825.63q0 2.405-.962 3.367-.722.721-2.887.721h-15.393q-4.089 0-4.089-4.088z" transform="matrix(1.18216 0 0 1.18216 171.006 -749.71)"/>
    </g>
</svg>
