<svg width="414.777" height="414.777" xml:space="preserve" xmlns:xlink="http://www.w3.org/1999/xlink" xmlns="http://www.w3.org/2000/svg">
    <defs>
        <linearGradient id="b">
            <stop style="stop-color:#fff;stop-opacity:1" offset="0"/>
            <stop style="stop-color:#dadada;stop-opacity:1" offset="1"/>
        </linearGradient>
        <linearGradient id="a">
            <stop style="stop-color:#008cda;stop-opacity:1" offset="0"/>
            <stop style="stop-color:#0076b6;stop-opacity:1" offset="1"/>
        </linearGradient>
        <linearGradient xlink:href="#a" id="c" x1="455.212" y1="308.779" x2="455.212" y2="751.098" gradientUnits="userSpaceOnUse"/>
        <linearGradient xlink:href="#b" id="d" x1="454.834" y1="308.779" x2="454.834" y2="751.098" gradientUnits="userSpaceOnUse"/>
    </defs>
    <g transform="matrix(.73477 0 0 .73477 -156.303 -181.993)">
        <path style="fill:#0068a1;stroke-linecap:round;paint-order:markers fill stroke" d="M388.91 247.687a15.651 15.651 0 0 0-15.652 15.654v144.883H228.375a15.651 15.651 0 0 0-15.65 15.648 15.651 15.651 0 0 0 15.65 15.651h144.883v180.832H228.375a15.651 15.651 0 0 0-15.65 15.648 15.651 15.651 0 0 0 15.65 15.651h144.883v144.883a15.651 15.651 0 0 0 15.651 15.651 15.651 15.651 0 0 0 15.651-15.651V651.654h74.763v144.883a15.651 15.651 0 0 0 15.652 15.651 15.651 15.651 0 0 0 15.65-15.651V651.654h74.764v144.883a15.651 15.651 0 0 0 15.651 15.651 15.651 15.651 0 0 0 15.651-15.651V651.654h144.883a15.651 15.651 0 0 0 15.651-15.65 15.651 15.651 0 0 0-15.651-15.65H616.69v-180.83h144.883a15.651 15.651 0 0 0 15.651-15.652 15.651 15.651 0 0 0-15.651-15.648H616.69V263.34a15.651 15.651 0 0 0-15.65-15.654 15.651 15.651 0 0 0-15.652 15.654v144.883h-74.763V263.34a15.651 15.651 0 0 0-15.651-15.654 15.651 15.651 0 0 0-15.652 15.654v144.883H404.56V263.34a15.651 15.651 0 0 0-15.65-15.654zm15.65 191.836h74.763v180.832H404.56zm106.066 0h74.763v180.832h-74.763Z"/>
        <rect style="fill:url(#c);fill-opacity:1;stroke-width:60.9187;stroke-linecap:round;stroke-linejoin:round;paint-order:markers fill stroke" width="442.32" height="442.32" x="273.815" y="308.779" ry="80.129"/>
        <path style="fill:url(#d);stroke-width:7.03142;stroke-linecap:round;stroke-linejoin:round;paint-order:markers fill stroke" d="M408.123 408.202c-11.792.023-21.34 9.587-21.341 21.38v30.297H273.815v18.607h112.967v102.902H273.815v18.607h112.967v30.298c0 11.794 9.548 21.361 21.341 21.384 0 0 13.705.02 30.515-.88 16.81-.903 36.175-2.262 52.322-7.06 29.949-8.899 52.471-21.91 72.21-40.624 25.366-24.047 35.173-52.428 38.302-63.871h114.663v-18.607H601.472c-3.129-11.444-12.936-39.827-38.302-63.874-19.74-18.715-42.262-31.726-72.21-40.624-16.147-4.798-35.512-6.154-52.322-7.057-16.81-.904-30.515-.878-30.515-.878z"/>
    </g>
</svg>
