<?xml version="1.0" encoding="UTF-8" standalone="no"?>
<!-- Created with Inkscape (http://www.inkscape.org/) -->

<svg
   width="67.5"
   height="67.5"
   viewBox="0 0 67.5 67.5"
   version="1.1"
   id="svg1"
   inkscape:version="1.4.2 (f4327f4, 2025-05-13)"
   sodipodi:docname="Peças.svg"
   inkscape:export-filename="P3.svg"
   inkscape:export-xdpi="33.599998"
   inkscape:export-ydpi="33.599998"
   xml:space="preserve"
   xmlns:inkscape="http://www.inkscape.org/namespaces/inkscape"
   xmlns:sodipodi="http://sodipodi.sourceforge.net/DTD/sodipodi-0.dtd"
   xmlns="http://www.w3.org/2000/svg"
   xmlns:svg="http://www.w3.org/2000/svg"><sodipodi:namedview
     id="namedview1"
     pagecolor="#505050"
     bordercolor="#eeeeee"
     borderopacity="1"
     inkscape:showpageshadow="0"
     inkscape:pageopacity="0"
     inkscape:pagecheckerboard="0"
     inkscape:deskcolor="#505050"
     inkscape:document-units="px"
     inkscape:zoom="2.6771428"
     inkscape:cx="62.193171"
     inkscape:cy="78.255071"
     inkscape:window-width="1920"
     inkscape:window-height="991"
     inkscape:window-x="-9"
     inkscape:window-y="-9"
     inkscape:window-maximized="1"
     inkscape:current-layer="g12"
     showguides="true"><sodipodi:guide
       position="811.75858,1679.7001"
       orientation="0,-1"
       id="guide140"
       inkscape:locked="false" /></sodipodi:namedview><defs
     id="defs1" /><g
     inkscape:label="Camada 1"
     inkscape:groupmode="layer"
     id="layer1"><g
       id="g12"
       inkscape:label="Peças"
       style="display:inline"
       transform="matrix(0.35,0,0,0.35,-87.226029,-431.44891)"><g
         id="g11"
         transform="matrix(-0.89984713,0,0,0.89984713,698.36894,124.28793)"
         inkscape:label="P3"><rect
           style="fill:#9a9a9a;fill-opacity:1;stroke:#000000;stroke-width:9.52523;stroke-linecap:round;stroke-linejoin:round;stroke-dasharray:none;stroke-opacity:1"
           id="rect9"
           width="204.79689"
           height="204.79689"
           x="289.58273"
           y="1236.5532"
           ry="5.6598706" /><path
           id="path3"
           style="baseline-shift:baseline;display:inline;overflow:visible;opacity:1;vector-effect:none;fill:#000000;fill-opacity:1;stroke-linecap:round;stroke-linejoin:round;enable-background:accumulate;stop-color:#000000;stop-opacity:1"
           d="m 405.96545,1236.5533 c 2.23048,0 4.02474,1.7943 4.02474,4.0247 v 1.7365 c 0,2.2304 -1.79426,4.0247 -4.02474,4.0247 h -27.96854 c -2.23048,0 -4.02474,-1.7943 -4.02474,-4.0247 v -1.7365 c 0,-2.2304 1.79426,-4.0247 4.02474,-4.0247 z m -13.98427,36.3591 a 3.88955,3.88955 0 0 1 3.47902,2.1519 l 12.48972,24.9795 a 4.8077483,4.8077483 0 0 1 -4.29761,6.958 h -6.11463 v 93.0217 a 5.5565,5.5565 0 0 1 -5.5565,5.5565 5.5565,5.5565 0 0 1 -5.5565,-5.5565 v -93.0217 h -6.11463 a 4.8077483,4.8077483 0 0 1 -4.2976,-6.958 l 12.48972,-24.9795 a 3.88955,3.88955 0 0 1 3.47901,-2.1519 z m 13.98427,158.6517 c 2.23048,0 4.02474,1.7943 4.02474,4.0247 v 1.7365 c 0,2.2304 -1.79426,4.0247 -4.02474,4.0247 h -27.96854 c -2.23048,0 -4.02474,-1.7943 -4.02474,-4.0247 v -1.7365 c 0,-2.2304 1.79426,-4.0247 4.02474,-4.0247 z"
           transform="translate(0,1.4288141e-5)" /></g><g
         id="g8"
         transform="matrix(-0.89984714,0,0,0.89984714,467.84599,124.28791)"
         inkscape:label="P2"
         style="display:inline"><rect
           style="fill:#9a9a9a;fill-opacity:1;stroke:#000000;stroke-width:9.52523;stroke-linecap:round;stroke-linejoin:round;stroke-dasharray:none;stroke-opacity:1"
           id="rect6"
           width="204.79689"
           height="204.79689"
           x="289.58273"
           y="1236.5532"
           ry="5.6598706" /><path
           id="path15"
           style="baseline-shift:baseline;display:inline;overflow:visible;opacity:1;vector-effect:none;stroke-linecap:round;stroke-linejoin:round;enable-background:accumulate;stop-color:#000000;stop-opacity:1"
           d="m 426.16357,1292.0377 a 4.8077483,4.8077483 0 0 1 1.87284,0.5023 l 24.97944,12.4897 a 3.88955,3.88955 0 0 1 0,6.9581 l -24.97944,12.4897 a 4.8077483,4.8077483 0 0 1 -6.95803,-4.3038 v -6.1084 h -60.78661 v 70.6717 a 5.5565,5.5565 0 0 1 -5.5565,5.5565 5.5565,5.5565 0 0 1 -5.5565,-5.5565 v -76.2282 a 5.5570556,5.5570556 0 0 1 5.5565,-5.5565 h 66.34311 v -6.1147 a 4.8077483,4.8077483 0 0 1 5.08519,-4.7999 z m 64.19121,28.905 c 2.23048,0 4.02474,1.7942 4.02474,4.0247 v 27.9685 c 0,2.2305 -1.79426,4.0248 -4.02474,4.0248 h -1.7364 c -2.23048,0 -4.02475,-1.7943 -4.02475,-4.0248 v -27.9685 c 0,-2.2305 1.79427,-4.0247 4.02475,-4.0247 z m -84.38933,110.6214 c 2.23048,0 4.02474,1.7943 4.02474,4.0248 v 1.7364 c 0,2.2305 -1.79426,4.0247 -4.02474,4.0247 h -27.96854 c -2.23048,0 -4.02474,-1.7942 -4.02474,-4.0247 v -1.7364 c 0,-2.2305 1.79426,-4.0248 4.02474,-4.0248 z" /></g><g
         id="g16"
         transform="matrix(0.89984714,0,0,0.89984714,-446.77853,124.28791)"
         inkscape:label="P1"
         style="display:inline"><rect
           style="fill:#9a9a9a;fill-opacity:1;stroke:#000000;stroke-width:9.52523;stroke-linecap:round;stroke-linejoin:round;stroke-dasharray:none;stroke-opacity:1"
           id="rect15"
           width="204.79689"
           height="204.79689"
           x="289.58273"
           y="1236.5532"
           ry="5.6598706" /><path
           id="path16"
           style="baseline-shift:baseline;display:inline;overflow:visible;opacity:1;vector-effect:none;stroke-linecap:round;stroke-linejoin:round;enable-background:accumulate;stop-color:#000000;stop-opacity:1"
           d="m 426.16357,1292.0377 a 4.8077483,4.8077483 0 0 1 1.87284,0.5023 l 24.97944,12.4897 a 3.88955,3.88955 0 0 1 0,6.9581 l -24.97944,12.4897 a 4.8077483,4.8077483 0 0 1 -6.95803,-4.3038 v -6.1084 h -60.78661 v 70.6717 a 5.5565,5.5565 0 0 1 -5.5565,5.5565 5.5565,5.5565 0 0 1 -5.5565,-5.5565 v -76.2282 a 5.5570556,5.5570556 0 0 1 5.5565,-5.5565 h 66.34311 v -6.1147 a 4.8077483,4.8077483 0 0 1 5.08519,-4.7999 z m 64.19121,28.905 c 2.23048,0 4.02474,1.7942 4.02474,4.0247 v 27.9685 c 0,2.2305 -1.79426,4.0248 -4.02474,4.0248 h -1.7364 c -2.23048,0 -4.02475,-1.7943 -4.02475,-4.0248 v -27.9685 c 0,-2.2305 1.79427,-4.0247 4.02475,-4.0247 z m -84.38933,110.6214 c 2.23048,0 4.02474,1.7943 4.02474,4.0248 v 1.7364 c 0,2.2305 -1.79426,4.0247 -4.02474,4.0247 h -27.96854 c -2.23048,0 -4.02474,-1.7942 -4.02474,-4.0247 v -1.7364 c 0,-2.2305 1.79426,-4.0248 4.02474,-4.0248 z" /></g></g></g></svg>
