<?xml version="1.0" encoding="UTF-8" standalone="no"?>
<svg
   width="1000"
   height="820"
   xml:space="preserve"
   version="1.1"
   id="svg3"
   sodipodi:docname="Base.svg"
   inkscape:version="1.4 (86a8ad7, 2024-10-11)"
   xmlns:inkscape="http://www.inkscape.org/namespaces/inkscape"
   xmlns:sodipodi="http://sodipodi.sourceforge.net/DTD/sodipodi-0.dtd"
   xmlns:xlink="http://www.w3.org/1999/xlink"
   xmlns="http://www.w3.org/2000/svg"
   xmlns:svg="http://www.w3.org/2000/svg"><sodipodi:namedview
   id="namedview3"
   pagecolor="#505050"
   bordercolor="#eeeeee"
   borderopacity="1"
   inkscape:showpageshadow="0"
   inkscape:pageopacity="0"
   inkscape:pagecheckerboard="0"
   inkscape:deskcolor="#505050"
   inkscape:zoom="7.5414634"
   inkscape:cx="357.1588"
   inkscape:cy="81.615459"
   inkscape:window-width="1920"
   inkscape:window-height="991"
   inkscape:window-x="-9"
   inkscape:window-y="-9"
   inkscape:window-maximized="1"
   inkscape:current-layer="g3" />
    <defs
   id="defs3">
        <linearGradient
   id="a">
            <stop
   style="stop-color:#0d69ff;stop-opacity:1"
   offset="0"
   id="stop1" />
            <stop
   style="stop-color:#0055e3;stop-opacity:1"
   offset=".525"
   id="stop2" />
            <stop
   style="stop-color:#005bef;stop-opacity:1"
   offset="1"
   id="stop3" />
        </linearGradient>
        <linearGradient
   xlink:href="#a"
   id="b"
   x1="249.135"
   y1="523.474"
   x2="752.557"
   y2="523.474"
   gradientUnits="userSpaceOnUse" />
    </defs>
    <path
   style="fill:#000;fill-opacity:1;stroke-linecap:round;paint-order:markers fill stroke"
   d="M7.347 56.791a4.5 4.5 0 0 0-4.5 4.5v712.203a4.5 4.5 0 0 0 4.497 4.5l20.343.037c.732.001 1.395-.212 2.006-.521v34.504A7.968 7.968 0 0 0 37.68 820h274.076a7.968 7.968 0 0 0 7.986-7.986V778.03h39.338a4.5 4.5 0 0 0 0-9h-39.338V735.05a7.968 7.968 0 0 0-7.986-7.987H245.92v-108.23h113.16a4.5 4.5 0 0 0 0-9H241.42a4.5 4.5 0 0 0-4.5 4.5v112.73h-53.506v-334.04H359.08a4.5 4.5 0 0 0 0-9H178.914a4.5 4.5 0 0 0-4.5 4.5v338.54h-60.322V170.114H359.08a4.5 4.5 0 0 0 0-9H109.592a4.5 4.5 0 0 0-4.5 4.5v561.45H37.68a7.968 7.968 0 0 0-7.987 7.986v34.504c-.608-.308-1.268-.521-1.996-.522l-15.85-.033V65.791H248.62a4.5 4.5 0 0 0 0-9z"
   id="path3" />
    <g
   transform="translate(-362.197 -135.55)"
   id="g3">
        <rect
   style="fill:#000;fill-opacity:1;stroke:none;stroke-width:3.87274;stroke-linecap:round;stroke-linejoin:round;stroke-dasharray:none;stroke-opacity:1;paint-order:markers fill stroke"
   width="125.46"
   height="39.906"
   x="217.28"
   y="95.567"
   ry="6.129"
   transform="translate(393.535 81.321)"
   id="rect3" />
        <circle
   style="fill:#35e100;fill-opacity:1;stroke:#0d0d0d;stroke-width:0.83942;stroke-linecap:round;stroke-linejoin:round;stroke-dasharray:none;stroke-opacity:1;paint-order:markers fill stroke"
   cx="706.04303"
   cy="197.408"
   r="7.4506965"
   id="circle3" />
    </g>
</svg>
