<?xml version="1.0" encoding="UTF-8" standalone="no"?>
<!-- Created with Inkscape (http://www.inkscape.org/) -->

<svg
   width="1000"
   height="820"
   viewBox="0 0 1000 820"
   version="1.1"
   id="svg1"
   inkscape:version="1.4 (86a8ad7, 2024-10-11)"
   sodipodi:docname="tanque - Inkscape.svg"
   xml:space="preserve"
   inkscape:export-filename="Agua1.svg"
   inkscape:export-xdpi="96"
   inkscape:export-ydpi="96"
   xmlns:inkscape="http://www.inkscape.org/namespaces/inkscape"
   xmlns:sodipodi="http://sodipodi.sourceforge.net/DTD/sodipodi-0.dtd"
   xmlns:xlink="http://www.w3.org/1999/xlink"
   xmlns="http://www.w3.org/2000/svg"
   xmlns:svg="http://www.w3.org/2000/svg"><sodipodi:namedview
     id="namedview1"
     pagecolor="#505050"
     bordercolor="#eeeeee"
     borderopacity="1"
     inkscape:showpageshadow="0"
     inkscape:pageopacity="0"
     inkscape:pagecheckerboard="0"
     inkscape:deskcolor="#505050"
     inkscape:document-units="px"
     inkscape:zoom="0.68862935"
     inkscape:cx="580.13792"
     inkscape:cy="517.69504"
     inkscape:window-width="1920"
     inkscape:window-height="991"
     inkscape:window-x="-9"
     inkscape:window-y="-9"
     inkscape:window-maximized="1"
     inkscape:current-layer="g10" /><defs
     id="defs1"><linearGradient
       id="linearGradient2"
       inkscape:collect="always"><stop
         style="stop-color:#0057e7;stop-opacity:1;"
         offset="0"
         id="stop2" /><stop
         style="stop-color:#0048c2;stop-opacity:1;"
         offset="0.54980761"
         id="stop4" /><stop
         style="stop-color:#0057e7;stop-opacity:1;"
         offset="1"
         id="stop3" /></linearGradient><linearGradient
       id="linearGradient22"
       inkscape:collect="always"><stop
         style="stop-color:#0d69ff;stop-opacity:1;"
         offset="0"
         id="stop22" /><stop
         style="stop-color:#0055e3;stop-opacity:1;"
         offset="0.52495265"
         id="stop24" /><stop
         style="stop-color:#005bef;stop-opacity:1;"
         offset="1"
         id="stop23" /></linearGradient><linearGradient
       inkscape:collect="always"
       xlink:href="#linearGradient22"
       id="linearGradient23"
       x1="249.13474"
       y1="523.47406"
       x2="752.55664"
       y2="523.47406"
       gradientUnits="userSpaceOnUse" /><linearGradient
       inkscape:collect="always"
       xlink:href="#linearGradient2"
       id="linearGradient3"
       x1="245.56583"
       y1="504.28888"
       x2="660.15814"
       y2="456.36758"
       gradientUnits="userSpaceOnUse" /></defs><g
     inkscape:label="Camada 1"
     inkscape:groupmode="layer"
     id="layer1"><path
       id="rect3"
       style="display:none;fill:#000000;fill-opacity:1;stroke-linecap:round;paint-order:markers fill stroke"
       d="m 7.3474628,56.79102 c -2.48517,2.5e-4 -4.49975,2.01482 -4.5,4.5 v 712.20312 c 2.5e-4,2.48365 2.01245,4.4976 4.4961,4.5 l 20.3437502,0.0371 c 0.73134,8.8e-4 1.39496,-0.21269 2.00586,-0.52148 v 34.5039 c 0,4.42473 3.5616,7.98633 7.98633,7.98633 H 311.75567 c 4.42472,0 7.98633,-3.5616 7.98633,-7.98633 v -33.98242 h 39.33789 c 2.48528,0 4.5,-2.01472 4.5,-4.5 0,-2.48528 -2.01472,-4.5 -4.5,-4.5 H 319.742 v -33.98242 c 0,-4.42473 -3.56161,-7.98633 -7.98633,-7.98633 H 245.91973 V 618.83203 h 113.16016 c 2.48528,0 4.5,-2.01472 4.5,-4.5 0,-2.48528 -2.01472,-4.5 -4.5,-4.5 H 241.41973 c -2.48518,2.5e-4 -4.49975,2.01482 -4.5,4.5 V 727.0625 H 183.41387 V 393.02148 h 175.66602 c 2.48528,0 4.5,-2.01472 4.5,-4.5 0,-2.48528 -2.01472,-4.5 -4.5,-4.5 H 178.91387 c -2.48518,2.5e-4 -4.49975,2.01482 -4.5,4.5 V 727.0625 H 114.09161 V 170.11328 h 244.98828 c 2.48528,0 4.5,-2.01472 4.5,-4.5 0,-2.48528 -2.01472,-4.5 -4.5,-4.5 H 109.59161 c -2.48518,2.5e-4 -4.49975,2.01482 -4.5,4.5 V 727.0625 H 37.679503 c -4.42473,0 -7.98633,3.5616 -7.98633,7.98633 v 34.5039 c -0.60803,-0.30731 -1.26826,-0.52085 -1.9961,-0.52148 l -15.84961,-0.0332 V 65.79102 H 248.61895 c 2.48528,0 4.5,-2.01472 4.5,-4.5 0,-2.48528 -2.01472,-4.5 -4.5,-4.5 z"
       sodipodi:nodetypes="ccccccsssscssscssccssscccccssscccccssscccssccccsssc" /><g
       id="g10"
       inkscape:label="Tanque"
       transform="translate(122.0401,-78.35938)"
       style="display:inline"><path
         style="display:inline;fill:url(#linearGradient3);stroke-width:40;stroke-linecap:round;stroke-linejoin:round;paint-order:markers fill stroke"
         d="m 245.73011,160.40642 c 0,0 15.20478,0.28377 31.93683,1.08912 16.73205,0.80535 44.96184,15.25941 58.81248,35.21488 13.85064,19.95547 20.95252,46.89394 27.24067,84.6556 6.28815,37.76167 14.13858,104.33521 18.2176,225.16372 4.07902,120.82851 -5.80127,377.60226 -5.80127,377.60226 l 279.66523,1.02684 c 0,0 -10.79917,-194.79186 -24.50995,-313.33246 C 617.58092,453.28578 599.76907,381.85955 568.94624,318.09251 538.1234,254.32547 498.39919,213.76921 466.87963,189.28337 435.36007,164.79753 394.59364,139.08129 349.47361,128.64943 c -29.55206,-6.8325 -74.87445,-5.00991 -74.87445,-5.00991 L 245.56583,123.54 Z"
         id="path2"
         sodipodi:nodetypes="czzzzcczzzsccc" /><g
         id="g1"
         style="display:none"
         inkscape:label="Água"
         transform="matrix(0.99320271,0,0,0.99131833,3.6934415,5.0222557)"
         inkscape:export-filename="Agua1.svg"
         inkscape:export-xdpi="96"
         inkscape:export-ydpi="96"><rect
           style="display:inline;fill:url(#linearGradient23);fill-opacity:1;stroke:none;stroke-width:1;stroke-linecap:round;stroke-linejoin:miter;stroke-dasharray:none;stroke-opacity:1;paint-order:markers fill stroke"
           id="rect10"
           width="503.42191"
           height="726.30554"
           x="249.13474"
           y="160.32127"
           inkscape:label="Água" /><rect
           style="display:none;fill:#488cff;fill-opacity:1;stroke:none;stroke-width:1;stroke-linecap:round;stroke-linejoin:miter;stroke-dasharray:none;stroke-opacity:1;paint-order:markers fill stroke"
           id="rect22"
           width="15.973734"
           height="233.07169"
           x="671.70001"
           y="400.30301"
           ry="0" /></g><path
         id="rect1"
         style="display:none;stroke-linecap:round;stroke-linejoin:round;paint-order:markers fill stroke"
         inkscape:label="Tanque"
         d="M 237.03906,84.443359 V 890.85938 c 4.1e-4,4.14196 3.35804,7.49959 7.5,7.5 h 512.61328 c 4.14196,-4.1e-4 7.49959,-3.35804 7.5,-7.5 v -763.9629 h 30.90235 v -5.87304 h -3.87305 -27.0293 -15 v 3.87304 758.4629 H 252.03906 V 84.443359 Z m 512.61328,0 v 8.673829 3.873046 h 15 27.0293 3.87305 v -5.873046 h -30.90235 v -6.673829 z"
         sodipodi:nodetypes="cccccccccccccccccccccccccc" /><g
         id="g5"
         inkscape:label="Valvula Out"
         transform="translate(152.16504,680.99721)"
         style="display:none"><rect
           style="fill:#000000;fill-opacity:1;stroke:none;stroke-width:3.87274;stroke-linecap:round;stroke-linejoin:round;stroke-dasharray:none;stroke-opacity:1;paint-order:markers fill stroke"
           id="rect4"
           width="122.89301"
           height="39.90625"
           x="845.46942"
           y="858.45258"
           ry="6.1288481"
           transform="translate(-245.41504,-680.99721)" /><g
           id="g8"
           transform="matrix(1.1112577,0,0,1.1112577,-79.682814,-32.847505)"><rect
             style="fill:#e16100;fill-opacity:1;stroke:#0d0d0d;stroke-width:1;stroke-linecap:round;stroke-linejoin:round;stroke-dasharray:none;stroke-opacity:1;paint-order:markers fill stroke"
             id="rect5"
             width="54.460884"
             height="12.450348"
             x="649.7619"
             y="191.1833"
             ry="5.4326177" /><circle
             style="fill:#be5200;fill-opacity:1;stroke:#0d0d0d;stroke-width:0.5;stroke-linecap:round;stroke-linejoin:round;stroke-dasharray:none;stroke-opacity:1;paint-order:markers fill stroke"
             id="circle5"
             cx="676.99237"
             cy="197.40848"
             r="4.4375358" /></g></g><g
         id="g3"
         inkscape:label="Valvula In"
         transform="translate(-484.23672,-57.190404)"
         style="display:none"><rect
           style="fill:#000000;fill-opacity:1;stroke:none;stroke-width:3.87274;stroke-linecap:round;stroke-linejoin:round;stroke-dasharray:none;stroke-opacity:1;paint-order:markers fill stroke"
           id="rect2"
           width="121.60947"
           height="39.906227"
           x="217.28032"
           y="95.567268"
           ry="6.1288481"
           transform="translate(393.53536,81.32096)" /><circle
           style="fill:#35e100;fill-opacity:1;stroke:#0d0d0d;stroke-width:0.5;stroke-linecap:round;stroke-linejoin:round;stroke-dasharray:none;stroke-opacity:1;paint-order:markers fill stroke"
           id="path3"
           cx="706.04333"
           cy="197.40848"
           r="4.4375358" /></g><g
         id="g2"
         inkscape:label="Sensores"
         style="display:none"><path
           id="rect8"
           style="display:inline;fill:#35e100;fill-opacity:1;stroke:#000000;stroke-width:0.666111;stroke-linecap:round;stroke-linejoin:miter;stroke-dasharray:none;stroke-opacity:1;paint-order:markers fill stroke"
           d="m 273.95537,233.72304 -15.30636,-3.5701 v 25.90756 l 15.30636,-3.57009 z m -15.30636,-6.12315 h -6.60995 v 31.01366 h 6.60995 z"
           sodipodi:nodetypes="cccccccccc"
           inkscape:label="Sensor3" /><path
           id="path9"
           style="display:inline;fill:#35e100;fill-opacity:1;stroke:#000000;stroke-width:0.666111;stroke-linecap:round;stroke-linejoin:miter;stroke-dasharray:none;stroke-opacity:1;paint-order:markers fill stroke"
           d="m 273.95537,458.86463 -15.30636,-3.57011 v 25.90756 l 15.30636,-3.57009 z m -15.30636,-6.12315 h -6.60995 v 31.01365 h 6.60995 z"
           sodipodi:nodetypes="cccccccccc"
           inkscape:label="Sensor2" /><path
           id="path10"
           style="display:inline;fill:#35e100;fill-opacity:1;stroke:#000000;stroke-width:0.666111;stroke-linecap:round;stroke-linejoin:miter;stroke-dasharray:none;stroke-opacity:1;paint-order:markers fill stroke"
           d="m 273.95537,684.00621 -15.30636,-3.5701 v 25.90756 l 15.30636,-3.57009 z m -15.30636,-6.12315 h -6.60995 v 31.01366 h 6.60995 z"
           sodipodi:nodetypes="cccccccccc"
           inkscape:label="Sensor1" /></g></g></g></svg>
