<?xml version="1.0" encoding="UTF-8" standalone="no"?>
<!-- Created with Inkscape (http://www.inkscape.org/) -->

<svg
   width="90"
   height="90"
   viewBox="0 0 90 90"
   version="1.1"
   id="svg1"
   inkscape:version="1.4 (86a8ad7, 2024-10-11)"
   sodipodi:docname="Robo.svg"
   inkscape:export-filename="Robo1.svg"
   inkscape:export-xdpi="96"
   inkscape:export-ydpi="96"
   xml:space="preserve"
   xmlns:inkscape="http://www.inkscape.org/namespaces/inkscape"
   xmlns:sodipodi="http://sodipodi.sourceforge.net/DTD/sodipodi-0.dtd"
   xmlns:xlink="http://www.w3.org/1999/xlink"
   xmlns="http://www.w3.org/2000/svg"
   xmlns:svg="http://www.w3.org/2000/svg"><sodipodi:namedview
     id="namedview1"
     pagecolor="#505050"
     bordercolor="#eeeeee"
     borderopacity="1"
     inkscape:showpageshadow="0"
     inkscape:pageopacity="0"
     inkscape:pagecheckerboard="0"
     inkscape:deskcolor="#505050"
     inkscape:document-units="px"
     inkscape:zoom="5.5090346"
     inkscape:cx="31.947521"
     inkscape:cy="59.084762"
     inkscape:window-width="1920"
     inkscape:window-height="991"
     inkscape:window-x="-9"
     inkscape:window-y="-9"
     inkscape:window-maximized="1"
     inkscape:current-layer="layer1" /><defs
     id="defs1"><linearGradient
       id="linearGradient16"
       inkscape:collect="always"><stop
         style="stop-color:#000000;stop-opacity:1;"
         offset="0"
         id="stop16" /><stop
         style="stop-color:#000000;stop-opacity:0.5;"
         offset="0.88995194"
         id="stop18" /><stop
         style="stop-color:#000000;stop-opacity:0;"
         offset="1"
         id="stop17" /></linearGradient><radialGradient
       inkscape:collect="always"
       xlink:href="#linearGradient1"
       id="radialGradient2"
       cx="-1229.9795"
       cy="975.8515"
       fx="-1229.9795"
       fy="975.8515"
       r="276.1604"
       gradientUnits="userSpaceOnUse"
       gradientTransform="rotate(90,-1196.58,965.47152)" /><linearGradient
       id="linearGradient1"
       inkscape:collect="always"><stop
         style="stop-color:#e7d6cf;stop-opacity:1;"
         offset="0"
         id="stop1" /><stop
         style="stop-color:#cda899;stop-opacity:1;"
         offset="1"
         id="stop2" /></linearGradient><radialGradient
       inkscape:collect="always"
       xlink:href="#linearGradient16"
       id="radialGradient17"
       cx="932.07208"
       cy="1212.0536"
       fx="932.07208"
       fy="1212.0536"
       r="311.17767"
       gradientTransform="matrix(0,0.14461192,-0.14278261,0,217.49096,-89.788735)"
       gradientUnits="userSpaceOnUse" /></defs><g
     inkscape:label="Camada 1"
     inkscape:groupmode="layer"
     id="layer1"><path
       id="rect12"
       style="opacity:1;fill:none;stroke:url(#radialGradient17);stroke-width:10.543;stroke-linecap:round;stroke-linejoin:round;stroke-dasharray:none;paint-order:markers fill stroke"
       d="m 82.120548,41.336286 v 7.424608 c 0,0.329059 -0.26491,0.59397 -0.593969,0.59397 -0.329058,0 -0.593969,-0.264911 -0.593969,-0.59397 v -7.424608 c 0,-0.329059 0.264911,-0.59397 0.593969,-0.59397 0.329059,0 0.593969,0.264911 0.593969,0.59397 z m 1.469296,-7.588836 v 22.602276 c 0,0.462744 -0.37253,0.835278 -0.835272,0.835278 h -2.455995 c -0.46274,0 -0.835272,-0.372534 -0.835272,-0.835278 V 33.74745 c 0,-0.46274 0.372532,-0.835272 0.835272,-0.835272 h 2.455995 c 0.462742,0 0.835272,0.372532 0.835272,0.835272 z M 46.395194,61.760049 H 80.607699 M 6.3298688,47.356318 H 45.60463 M 46.246707,17.122925 V 73.125302 M 76.424701,22.409633 H 13.368305 M 83.133074,33.056642 A 39.895684,39.895684 0 0 0 58.371101,7.4527108 V 13.34141 c 0,1.551426 -1.248999,2.800164 -2.800439,2.800164 H 34.764058 c -1.55144,0 -2.800454,-1.248738 -2.800454,-2.800164 V 7.4527108 A 39.895684,39.895684 0 0 0 5.2716999,45.000127 39.895684,39.895684 0 0 0 31.963604,82.547246 v -5.888699 c 0,-1.55144 1.249014,-2.800438 2.800454,-2.800438 h 20.806604 c 1.55144,0 2.800439,1.248998 2.800439,2.800438 v 5.983319 A 39.895684,39.895684 0 0 0 83.13025,57.037934 h -2.674757 c -0.462741,0 -0.83519,-0.372462 -0.83519,-0.835192 V 33.891834 c 0,-0.462744 0.372449,-0.835192 0.83519,-0.835192 z m -25.73323,44.14073 v 4.09499 c 0,1.22158 -0.983433,2.204999 -2.205,2.204999 H 35.139875 c -1.221552,0 -2.204985,-0.983419 -2.204985,-2.204999 v -4.09499 c 0,-1.221567 0.983433,-2.205 2.204985,-2.205 h 20.054969 c 1.221567,0 2.205,0.983433 2.205,2.205 z m 0,-68.489758 v 4.095005 c 0,1.221566 -0.983433,2.204985 -2.205,2.204985 H 35.139875 c -1.221552,0 -2.204985,-0.983419 -2.204985,-2.204985 V 8.707614 c 0,-1.2215659 0.983433,-2.2049992 2.204985,-2.2049992 h 20.054969 c 1.221567,0 2.205,0.9834333 2.205,2.2049992 z M 47.477485,6.1068654 c 0,-0.4627292 -0.372737,-0.8351773 -0.835481,-0.8351773 h -2.949288 c -0.462744,0 -0.835481,0.3724481 -0.835481,0.8351773 v 0.5264887 c 0,0.4627292 0.372737,0.8351916 0.835481,0.8351916 h 2.949288 c 0.462744,0 0.835481,-0.3724624 0.835481,-0.8351916 z m 0,77.2597666 c 0,-0.462729 -0.372737,-0.835177 -0.835481,-0.835177 h -2.949288 c -0.462744,0 -0.835481,0.372448 -0.835481,0.835177 v 0.526488 c 0,0.462729 0.372737,0.835192 0.835481,0.835192 h 2.949288 c 0.462744,0 0.835481,-0.372463 0.835481,-0.835192 z"
       inkscape:label="Sombra" /><g
       id="g14"
       transform="matrix(0.14461192,0,0,0.14461192,219.78048,-89.788733)"><path
         id="path2"
         style="opacity:1;fill:#6c697c;fill-opacity:1;stroke:#000000;stroke-width:2;stroke-dasharray:none;stroke-opacity:1;paint-order:markers fill stroke"
         d="m -1190.9854,663.12375 c 0,-3.1998 -2.5775,-5.7753 -5.7774,-5.7753 h -20.3945 c -3.1999,0 -5.7774,2.5755 -5.7774,5.7753 v 3.6407 c 0,3.1998 2.5775,5.7754 5.7774,5.7754 h 20.3945 c 3.1999,0 5.7774,-2.5756 5.7774,-5.7754 z m 0,534.25585 c 0,-3.1998 -2.5775,-5.7753 -5.7774,-5.7753 h -20.3945 c -3.1999,0 -5.7774,2.5755 -5.7774,5.7753 v 3.6407 c 0,3.1998 2.5775,5.7754 5.7774,5.7754 h 20.3945 c 3.1999,0 5.7774,-2.5756 5.7774,-5.7754 z" /><g
         id="g5"
         transform="rotate(90,-1212.511,932.02908)"
         style="fill:#3c3b45;fill-opacity:1;stroke:#000000;stroke-opacity:1"><rect
           style="opacity:1;fill:#3c3b45;fill-opacity:1;stroke:#000000;stroke-width:5;stroke-dasharray:none;stroke-opacity:1;paint-order:markers fill stroke"
           id="rect4"
           width="58.812523"
           height="169.17664"
           x="-1478.6797"
           y="841.88977"
           ry="15.24768" /><rect
           style="opacity:1;fill:#3c3b45;fill-opacity:1;stroke:#000000;stroke-width:5;stroke-dasharray:none;stroke-opacity:1;paint-order:markers fill stroke"
           id="rect5"
           width="58.812523"
           height="169.17664"
           x="-1005.069"
           y="841.88977"
           ry="15.24768" /></g><path
         id="path5"
         style="display:inline;opacity:1;fill:url(#radialGradient2);stroke:#000000;stroke-width:5;stroke-linecap:round;stroke-linejoin:round;stroke-dasharray:none;stroke-opacity:1;paint-order:markers fill stroke"
         d="m -944.42489,849.48305 a 275.88101,275.88101 0 0 0 -171.23051,-177.0527 v 40.7207 c 0,10.7282 -8.6369,19.3633 -19.3652,19.3633 h -143.8789 c -10.7283,0 -19.3653,-8.6351 -19.3653,-19.3633 v -40.7207 a 275.88101,275.88101 0 0 0 -184.5761,259.6426 275.88101,275.88101 0 0 0 184.5761,259.64055 v -40.7207 c 0,-10.7283 8.637,-19.3652 19.3653,-19.3652 h 143.8789 c 10.7283,0 19.3652,8.6369 19.3652,19.3652 v 41.375 a 275.88101,275.88101 0 0 0 171.21098,-177.0527 h -18.4961 c -3.19988,0 -5.77539,-2.5756 -5.77539,-5.7754 V 855.25845 c 0,-3.1999 2.57551,-5.7754 5.77539,-5.7754 z" /><path
         style="opacity:1;fill:#6c697c;fill-opacity:1;stroke:#757575;stroke-width:4.13585;stroke-linecap:round;stroke-linejoin:round;stroke-dasharray:4.13585, 41.3585;stroke-dashoffset:0;stroke-opacity:1;paint-order:markers fill stroke"
         d="M -990.81369,775.85835 H -1426.8524"
         id="path6"
         sodipodi:nodetypes="cc" /><path
         style="opacity:1;fill:#6c697c;fill-opacity:1;stroke:#757575;stroke-width:4.13585;stroke-linecap:round;stroke-linejoin:round;stroke-dasharray:4.13585, 41.3585;stroke-dashoffset:0;stroke-opacity:1;paint-order:markers fill stroke"
         d="M -1199.4963,739.30045 V 1126.5602"
         id="path7"
         sodipodi:nodetypes="cc" /><path
         style="opacity:1;fill:#6c697c;fill-opacity:1;stroke:#757575;stroke-width:4.13585;stroke-linecap:round;stroke-linejoin:round;stroke-dasharray:4.13585, 41.3585;stroke-dashoffset:0;stroke-opacity:1;paint-order:markers fill stroke"
         d="m -1475.5236,948.36615 h 271.5873"
         id="path12"
         sodipodi:nodetypes="cc" /><path
         style="opacity:1;fill:#6c697c;fill-opacity:1;stroke:#757575;stroke-width:4.13585;stroke-linecap:round;stroke-linejoin:round;stroke-dasharray:4.13585, 41.3585;stroke-dashoffset:0;stroke-opacity:1;paint-order:markers fill stroke"
         d="m -1198.4695,1047.9688 h 236.58149"
         id="path13"
         sodipodi:nodetypes="cc" /><rect
         style="opacity:1;fill:#595767;fill-opacity:1;stroke:#000000;stroke-width:3;stroke-linecap:round;stroke-linejoin:round;stroke-dasharray:none;stroke-dashoffset:0;stroke-opacity:1;paint-order:markers fill stroke"
         id="rect13"
         width="167.84802"
         height="28.535263"
         x="848.48407"
         y="941.2663"
         ry="5.7759542"
         transform="rotate(90)" /><rect
         style="opacity:1;fill:#ffb201;fill-opacity:1;stroke:none;stroke-width:3;stroke-linecap:round;stroke-linejoin:round;stroke-dasharray:none;stroke-dashoffset:0;stroke-opacity:1;paint-order:markers fill stroke"
         id="rect14"
         width="59.556267"
         height="8.2146578"
         x="902.62994"
         y="951.42657"
         ry="4.1073289"
         transform="rotate(90)" /></g></g></svg>
