<svg width="1000" height="1000" xml:space="preserve" xmlns="http://www.w3.org/2000/svg">
    <path style="display:inline;fill:#e4e6e5;fill-opacity:1;stroke-linecap:round;stroke-linejoin:round;stroke-dasharray:5,9;paint-order:markers stroke fill" d="M331.667 173.535h508.924v661.28H331.667z" transform="matrix(1.51222 0 0 1.51222 -386.355 -262.422)"/>
    <path style="display:inline;fill:#828280;fill-opacity:1;stroke-linecap:round;stroke-linejoin:round;stroke-dasharray:5,9;paint-order:markers stroke fill" d="M372.034 216.662h428.189v575.026H372.034z" transform="matrix(1.51222 0 0 1.51222 -386.355 -262.422)"/>
    <g style="display:inline">
        <path style="display:inline;fill:#d5d9da;fill-opacity:1;stroke-linecap:round;stroke-linejoin:round;stroke-dasharray:5,9;paint-order:markers stroke fill" d="M372.74 351.69h396.357v58.529H372.74z" transform="matrix(1.51222 0 0 1.51222 -387.422 -76.087)"/>
        <path style="display:inline;fill:#aaaba6;fill-opacity:1;stroke-linecap:round;stroke-linejoin:round;stroke-dasharray:5,9;paint-order:markers stroke fill" d="M372.74 362.454h396.357v3.384H372.74zM372.74 395.128h396.357v3.384H372.74z" transform="matrix(1.51222 0 0 1.51222 -387.422 -75.373)"/>
    </g>
    <g style="display:inline">
        <g transform="matrix(1.51222 0 0 1.51222 -386.355 -260.481)">
            <rect style="display:inline;fill:#848580;fill-opacity:1;stroke-linecap:round;stroke-linejoin:round;stroke-dasharray:5,9;paint-order:markers stroke fill" width="8.728" height="8.215" x="802.405" y="506.191" ry="0"/>
            <rect style="display:inline;fill:#5c5c5a;fill-opacity:1;stroke-linecap:round;stroke-linejoin:round;stroke-dasharray:5,9;paint-order:markers stroke fill" width="7.393" height="29.759" x="797.466" y="495.015" ry="3.267"/>
            <rect style="fill:#aaaba6;fill-opacity:1;stroke-linecap:round;stroke-linejoin:round;stroke-dasharray:5,9;paint-order:markers stroke fill" width="10.256" height="32.855" x="790.973" y="493.462" ry="1.906"/>
            <path style="display:inline;fill:#2e2e27;fill-opacity:1;stroke-linecap:round;stroke-linejoin:round;stroke-dasharray:5,9;paint-order:markers stroke fill" d="M813.3 496.457a4.8 4.8 0 0 0-4.81 4.81v18.061a4.8 4.8 0 0 0 4.81 4.81h12.526a4.799 4.799 0 0 0 4.809-4.81v-18.06a4.799 4.799 0 0 0-4.809-4.811zm12.848 11.088a2.754 2.754 0 0 1 2.752 2.754 2.754 2.754 0 0 1-2.752 2.752 2.754 2.754 0 0 1-2.753-2.752 2.754 2.754 0 0 1 2.753-2.754z"/>
        </g>
        <path style="display:inline;fill:#e4e6e5;fill-opacity:1;stroke-linecap:round;stroke-linejoin:round;stroke-dasharray:5,9;paint-order:markers stroke fill" d="M773.205 220.256h22.077v565.271h-22.077z" transform="matrix(1.51222 0 0 1.51222 -386.355 -260.481)"/>
    </g>
    <path style="display:inline;fill:#e4e6e5;fill-opacity:1;stroke-linecap:round;stroke-linejoin:round;stroke-dasharray:5,9;paint-order:markers stroke fill" d="M389.905 536.573h153.336V721.36H389.905z" transform="translate(-935.35 -1402.487) scale(3.02478)"/>
    <path style="display:inline;fill:#f9fbfa;fill-opacity:1;stroke-width:.813489;stroke-linecap:round;stroke-linejoin:round;stroke-dasharray:4.06745,7.3214;paint-order:markers stroke fill" d="M389.905 567.824h153.336V690.11H389.905z" transform="translate(-935.35 -1402.487) scale(3.02478)"/>
    <path style="display:inline;fill:#fa1515;fill-opacity:1;stroke-linecap:round;stroke-linejoin:round;stroke-dasharray:5,9;paint-order:markers stroke fill" d="M392.399 569.824h45.198v11.799h-45.198z" transform="translate(-935.35 -1402.487) scale(3.02478)"/>
    <path style="display:inline;fill:#3e3e3c;fill-opacity:1;stroke:none;stroke-width:.44776;stroke-linecap:round;stroke-linejoin:miter;stroke-dasharray:none;stroke-opacity:1;paint-order:markers stroke fill" d="M414.998 544.35a7.701 7.701 0 0 0-7.7 7.7 7.701 7.701 0 0 0 7.7 7.702 7.701 7.701 0 0 0 7.701-7.701 7.701 7.701 0 0 0-7.7-7.701zm-2.854 4.078a.44.44 0 0 1 .311.13l2.585 2.585 2.585-2.585a.438.438 0 0 1 .621-.002.442.442 0 0 1 0 .624l-2.583 2.585 2.583 2.586a.438.438 0 0 1 .002.62.442.442 0 0 1-.624 0l-2.584-2.585-2.585 2.585a.44.44 0 1 1-.622-.62l2.585-2.586-2.585-2.585a.44.44 0 0 1 0-.622v-.002a.435.435 0 0 1 .311-.128z" transform="translate(-935.35 -1402.487) scale(3.02478)"/>
    <path d="M410.295 579.558v-7.67h1.775v6.224h3.846v1.446zm7.631 0v-7.012l.767.767h-2.3v-1.424h3.308v7.669z" style="font-weight:700;font-size:10.9556px;line-height:1;font-family:Montserrat;-inkscape-font-specification:'Montserrat Bold';letter-spacing:.684721px;word-spacing:.342361px;display:inline;fill:#fff;stroke-width:.171181;stroke-linecap:round;paint-order:markers stroke fill" aria-label="L1" transform="translate(-935.35 -1402.487) scale(3.02478)"/>
    <path style="fill:#15fa23;fill-opacity:1;stroke-linecap:round;stroke-linejoin:round;stroke-dasharray:5,9;paint-order:markers stroke fill" transform="translate(-779.505 -1402.487) scale(3.02478)" d="M392.399 569.824h45.198v11.799h-45.198z"/>
    <path style="fill:#3e3e3c;fill-opacity:1;stroke:none;stroke-width:.44776;stroke-linecap:round;stroke-linejoin:miter;stroke-dasharray:none;stroke-opacity:1;paint-order:markers stroke fill" d="M414.998 544.35a7.701 7.701 0 0 0-7.7 7.7 7.701 7.701 0 0 0 7.7 7.702 7.701 7.701 0 0 0 7.701-7.701 7.701 7.701 0 0 0-7.7-7.701zm-2.854 4.078a.44.44 0 0 1 .311.13l2.585 2.585 2.585-2.585a.438.438 0 0 1 .621-.002.442.442 0 0 1 0 .624l-2.583 2.585 2.583 2.586a.438.438 0 0 1 .002.62.442.442 0 0 1-.624 0l-2.584-2.585-2.585 2.585a.44.44 0 1 1-.622-.62l2.585-2.586-2.585-2.585a.44.44 0 0 1 0-.622v-.002a.435.435 0 0 1 .311-.128zM414.998 699.157a7.701 7.701 0 0 0-7.7 7.701 7.701 7.701 0 0 0 7.7 7.701 7.701 7.701 0 0 0 7.701-7.7 7.701 7.701 0 0 0-7.7-7.702zm-2.854 4.079a.44.44 0 0 1 .311.13l2.585 2.584 2.585-2.585a.438.438 0 0 1 .621-.002.442.442 0 0 1 0 .625l-2.583 2.585 2.583 2.585a.438.438 0 0 1 .002.62.442.442 0 0 1-.624 0l-2.584-2.584-2.585 2.585a.44.44 0 1 1-.622-.621l2.585-2.585-2.585-2.585a.44.44 0 0 1 0-.623v-.002a.435.435 0 0 1 .311-.128z" transform="translate(-779.505 -1402.487) scale(3.02478)"/>
    <path d="M460.246 579.624v-7.67h1.775v6.223h3.845v1.447zm6.754 0v-1.15l2.958-2.794q.35-.318.515-.57.164-.252.22-.46.065-.208.065-.384 0-.46-.318-.7-.307-.253-.91-.253-.481 0-.897.186-.406.187-.69.581l-1.293-.833q.438-.657 1.227-1.04.788-.384 1.818-.384.855 0 1.49.285.647.274.997.778.362.504.362 1.205 0 .373-.099.745-.087.362-.372.767-.274.405-.811.91l-2.454 2.31-.34-.646h4.328v1.447z" style="font-weight:700;font-size:10.9556px;line-height:1;font-family:Montserrat;-inkscape-font-specification:'Montserrat Bold';letter-spacing:.684721px;word-spacing:.342361px;fill:#fff;stroke-width:.171181;stroke-linecap:round;paint-order:markers stroke fill" aria-label="L2" transform="translate(-935.35 -1402.487) scale(3.02478)"/>
    <path style="display:inline;fill:#c6c6c4;fill-opacity:1;stroke-width:1.89902;stroke-linecap:round;stroke-linejoin:round;stroke-dasharray:9.49509,17.0911;paint-order:markers stroke fill" transform="translate(-779.505 -1402.487) scale(3.02478)" d="M392.399 676.311h45.198v11.799h-45.198z"/>
    <path style="font-weight:700;font-size:10.9556px;line-height:1;font-family:Montserrat;-inkscape-font-specification:'Montserrat Bold';letter-spacing:.684721px;word-spacing:.342361px;display:inline;stroke-width:.171181;stroke-linecap:round;paint-order:markers stroke fill" d="M415.491 686.176q-.887 0-1.654-.285-.756-.295-1.315-.832-.559-.537-.876-1.26-.307-.723-.307-1.589 0-.865.307-1.588.317-.723.876-1.26.57-.537 1.326-.822.756-.296 1.654-.296.997 0 1.797.35.81.34 1.358 1.009l-1.139 1.052q-.394-.45-.876-.669-.483-.23-1.052-.23-.537 0-.986.175-.45.176-.778.504-.329.33-.515.778-.175.45-.175.997 0 .548.175.997.186.45.515.778.329.329.778.504t.986.175q.57 0 1.052-.219.482-.23.876-.69l1.14 1.052q-.548.668-1.36 1.019-.799.35-1.807.35z" aria-label="C" transform="translate(-779.505 -1402.487) scale(3.02478)"/>
    <path style="display:inline;fill:#2515fa;fill-opacity:1;stroke-linecap:round;stroke-linejoin:round;stroke-dasharray:5,9;paint-order:markers stroke fill" transform="translate(-623.66 -1402.487) scale(3.02478)" d="M392.399 569.824h45.198v11.799h-45.198z"/>
    <path style="display:inline;fill:#3e3e3c;fill-opacity:1;stroke:none;stroke-width:.44776;stroke-linecap:round;stroke-linejoin:miter;stroke-dasharray:none;stroke-opacity:1;paint-order:markers stroke fill" d="M414.998 544.35a7.701 7.701 0 0 0-7.7 7.7 7.701 7.701 0 0 0 7.7 7.702 7.701 7.701 0 0 0 7.701-7.701 7.701 7.701 0 0 0-7.7-7.701zm-2.854 4.078a.44.44 0 0 1 .311.13l2.585 2.585 2.585-2.585a.438.438 0 0 1 .621-.002.442.442 0 0 1 0 .624l-2.583 2.585 2.583 2.586a.438.438 0 0 1 .002.62.442.442 0 0 1-.624 0l-2.584-2.585-2.585 2.585a.44.44 0 1 1-.622-.62l2.585-2.586-2.585-2.585a.44.44 0 0 1 0-.622v-.002a.435.435 0 0 1 .311-.128zM414.998 699.157a7.701 7.701 0 0 0-7.7 7.701 7.701 7.701 0 0 0 7.7 7.701 7.701 7.701 0 0 0 7.701-7.7 7.701 7.701 0 0 0-7.7-7.702zm-2.854 4.079a.44.44 0 0 1 .311.13l2.585 2.584 2.585-2.585a.438.438 0 0 1 .621-.002.442.442 0 0 1 0 .625l-2.583 2.585 2.583 2.585a.438.438 0 0 1 .002.62.442.442 0 0 1-.624 0l-2.584-2.584-2.585 2.585a.44.44 0 1 1-.622-.621l2.585-2.585-2.585-2.585a.44.44 0 0 1 0-.623v-.002a.435.435 0 0 1 .311-.128z" transform="translate(-623.66 -1402.487) scale(3.02478)"/>
    <path d="M408.734 579.492v-7.669h1.775v6.223h3.846v1.446zm9.35.132q-.799 0-1.588-.209-.788-.219-1.336-.613l.69-1.359q.438.318 1.019.504.58.187 1.172.187.668 0 1.052-.263.383-.263.383-.723 0-.439-.34-.69-.339-.253-1.095-.253h-.81v-1.172l2.136-2.421.197.635h-4.02v-1.424h5.367v1.15l-2.125 2.422-.898-.515h.515q1.413 0 2.136.635.723.636.723 1.633 0 .646-.34 1.216-.34.558-1.04.909-.702.35-1.797.35z" style="font-weight:700;font-size:10.9556px;line-height:1;font-family:Montserrat;-inkscape-font-specification:'Montserrat Bold';letter-spacing:.684721px;word-spacing:.342361px;display:inline;fill:#fff;stroke-width:.171181;stroke-linecap:round;paint-order:markers stroke fill" aria-label="L3" transform="translate(-623.66 -1402.487) scale(3.02478)"/>
    <path style="display:inline;fill:#c6c6c4;fill-opacity:1;stroke-width:1.89902;stroke-linecap:round;stroke-linejoin:round;stroke-dasharray:9.49509,17.0911;paint-order:markers stroke fill" transform="translate(-623.66 -1402.487) scale(3.02478)" d="M392.399 676.311h45.198v11.799h-45.198z"/>
    <path style="fill:#3e3e3c;stroke-width:1.62273;stroke-linecap:round;paint-order:markers stroke fill" d="m439.22 590.377-1.08 1.152h.975l1.448-1.152zm-5.453.073v5.936h1.249v-5.936zm24.348 0v5.936h1.248v-5.936zm20.04 0v2.088c-.1-.11-.21-.206-.336-.28-.272-.16-.59-.24-.952-.24-.405 0-.77.09-1.096.271a2.026 2.026 0 0 0-.776.769c-.187.33-.28.722-.28 1.176 0 .448.094.837.28 1.168.192.33.45.588.776.775.326.181.69.273 1.096.273.379 0 .701-.08.968-.24.144-.086.268-.197.376-.329v.505h1.192v-5.936zm-56.708.335v5.6h1.296v-1.56h1.128c.02 0 .037-.004.058-.004l1.078 1.565h1.4l-1.252-1.797.012-.004c.363-.16.643-.39.84-.688.198-.304.296-.663.296-1.08 0-.634-.216-1.13-.648-1.488-.432-.362-1.037-.544-1.816-.544zm25.348 0v5.6h1.296v-2.04h2.592v-1.04h-2.592v-1.48h2.936v-1.04zm44.38 0v5.6h1.296v-2.04h2.592v-1.04h-2.592v-1.48h2.936v-1.04zm-29.76.345v.951h-.664v.96h.664v1.865c0 .512.142.898.424 1.16.283.255.677.384 1.184.384.192 0 .376-.022.552-.064a1.43 1.43 0 0 0 .464-.209l-.336-.88a.8.8 0 0 1-.504.16.53.53 0 0 1-.392-.144c-.096-.101-.144-.242-.144-.423v-1.848h1.072v-.96h-1.072v-.952zm-38.672.711h1.056c.4 0 .699.086.896.257.197.17.296.41.296.72 0 .303-.099.543-.296.72-.197.17-.496.255-.896.255h-1.056zm7.212.176c-.437 0-.83.096-1.176.288a2.117 2.117 0 0 0-.824.784 2.19 2.19 0 0 0-.296 1.145c0 .426.101.807.304 1.143.203.33.488.593.856.785.374.192.806.288 1.296.288.39 0 .733-.06 1.032-.177a1.97 1.97 0 0 0 .744-.52l-.664-.72a1.458 1.458 0 0 1-1.08.416c-.256 0-.48-.045-.672-.136a1.082 1.082 0 0 1-.44-.407 1.17 1.17 0 0 1-.117-.32h3.253l.016-.168c.005-.064.008-.12.008-.168 0-.464-.098-.862-.295-1.192a1.967 1.967 0 0 0-.809-.769 2.352 2.352 0 0 0-1.136-.272zm8.936 0c-.437 0-.83.096-1.176.288a2.117 2.117 0 0 0-.824.784 2.19 2.19 0 0 0-.296 1.145c0 .426.101.807.304 1.143.203.33.488.593.856.785.374.192.806.288 1.296.288.39 0 .733-.06 1.032-.177a1.97 1.97 0 0 0 .744-.52l-.664-.72a1.458 1.458 0 0 1-1.08.416 1.56 1.56 0 0 1-.672-.136 1.082 1.082 0 0 1-.44-.407 1.17 1.17 0 0 1-.117-.32h3.253l.016-.168c.005-.064.008-.12.008-.168 0-.464-.098-.862-.296-1.192a1.966 1.966 0 0 0-.807-.769 2.355 2.355 0 0 0-1.137-.272zm15.284 0c-.341 0-.677.046-1.008.137-.33.09-.613.218-.848.383l.448.873c.155-.123.341-.22.56-.288.224-.075.45-.113.68-.113.336 0 .584.075.744.224.165.15.249.357.249.624h-.993c-.437 0-.792.057-1.064.169-.272.106-.472.255-.6.447a1.222 1.222 0 0 0-.184.672c0 .246.064.467.192.665.128.197.312.354.552.472.24.112.529.168.865.168.378 0 .687-.073.927-.217.17-.102.289-.249.384-.417v.57h1.168v-2.457c0-.656-.181-1.139-.544-1.448-.362-.31-.872-.464-1.528-.464zm12.9 0c-.341 0-.677.046-1.008.137-.33.09-.613.218-.848.383l.448.873c.155-.123.341-.22.56-.288.224-.075.45-.113.68-.113.336 0 .585.075.745.224.165.15.247.357.247.624h-.992c-.437 0-.791.057-1.063.169-.272.106-.473.255-.601.447a1.222 1.222 0 0 0-.184.672c0 .246.064.467.192.665.128.197.312.354.552.472.24.112.528.168.864.168.38 0 .688-.073.928-.217.17-.102.29-.25.385-.419v.572h1.167v-2.457c0-.656-.181-1.139-.544-1.448-.362-.31-.872-.464-1.528-.464zm16.196 0c-.437 0-.829.096-1.176.288a2.117 2.117 0 0 0-.824.784 2.19 2.19 0 0 0-.296 1.145c0 .426.102.807.304 1.143.203.33.488.593.856.785.374.192.806.288 1.296.288.39 0 .733-.06 1.032-.177a1.97 1.97 0 0 0 .744-.52l-.664-.72a1.458 1.458 0 0 1-1.08.416c-.256 0-.48-.045-.672-.136a1.082 1.082 0 0 1-.44-.407 1.17 1.17 0 0 1-.117-.32h3.253l.016-.168c.005-.064.008-.12.008-.168 0-.464-.098-.862-.295-1.192a1.967 1.967 0 0 0-.809-.769 2.352 2.352 0 0 0-1.136-.272zm15.284 0c-.341 0-.677.046-1.008.137-.33.09-.613.218-.848.383l.448.873c.155-.123.342-.22.56-.288.224-.075.45-.113.68-.113.336 0 .584.075.744.224.165.15.248.357.248.624h-.992c-.437 0-.792.057-1.064.169-.272.106-.472.255-.6.447a1.222 1.222 0 0 0-.184.672c0 .246.064.467.192.665.128.197.312.354.552.472.24.112.528.168.864.168.379 0 .689-.073.929-.217.17-.102.288-.25.383-.418v.57h1.168v-2.456c0-.656-.18-1.139-.544-1.448-.362-.31-.872-.464-1.528-.464zm5.62 0c-.416 0-.773.062-1.072.184-.298.118-.528.28-.688.489a1.174 1.174 0 0 0-.232.72c0 .245.046.445.137.6.096.154.22.277.375.368.155.09.326.16.512.207.187.043.371.078.552.104.187.027.358.054.513.08a1.1 1.1 0 0 1 .367.12c.096.049.144.123.144.225 0 .122-.06.218-.183.288-.118.069-.32.104-.609.104a2.884 2.884 0 0 1-1.496-.416l-.416.895c.198.134.464.245.8.336.342.085.697.129 1.065.129.432 0 .797-.06 1.095-.177.304-.117.536-.277.696-.48.16-.207.24-.445.24-.712 0-.245-.048-.442-.144-.592a1.012 1.012 0 0 0-.376-.36c-.15-.09-.317-.16-.504-.207a4.14 4.14 0 0 0-.56-.104 8.852 8.852 0 0 1-.504-.089 1.34 1.34 0 0 1-.375-.128.261.261 0 0 1-.137-.24c0-.117.064-.213.192-.288.128-.075.331-.112.608-.112.198 0 .4.024.608.072.213.043.424.125.632.248l.416-.888a2.433 2.433 0 0 0-.76-.28 4.338 4.338 0 0 0-.896-.096zm5.284 0c-.437 0-.829.096-1.176.288a2.117 2.117 0 0 0-.824.784 2.19 2.19 0 0 0-.296 1.145c0 .426.101.807.304 1.143.203.33.488.593.856.785.374.192.806.288 1.296.288.39 0 .733-.06 1.032-.177a1.97 1.97 0 0 0 .744-.52l-.664-.72a1.458 1.458 0 0 1-1.08.416c-.256 0-.48-.045-.672-.136a1.082 1.082 0 0 1-.44-.407 1.17 1.17 0 0 1-.117-.32h3.253l.016-.168c.005-.064.008-.12.008-.168 0-.464-.098-.862-.295-1.192a1.967 1.967 0 0 0-.809-.769 2.352 2.352 0 0 0-1.136-.272zm-79.496.944c.214 0 .4.048.56.144a.965.965 0 0 1 .488.752h-2.103a1.11 1.11 0 0 1 .111-.36.952.952 0 0 1 .376-.392c.166-.096.355-.144.568-.144zm8.936 0c.214 0 .4.048.56.144a.965.965 0 0 1 .488.752h-2.103a1.11 1.11 0 0 1 .111-.36.952.952 0 0 1 .376-.392c.166-.096.355-.144.568-.144zm44.38 0c.213 0 .4.048.56.144a.965.965 0 0 1 .489.752h-2.104a1.11 1.11 0 0 1 .11-.36.954.954 0 0 1 .377-.392c.166-.096.355-.144.568-.144zm26.189 0c.213 0 .4.048.56.144a.965.965 0 0 1 .488.752h-2.104a1.11 1.11 0 0 1 .112-.36.952.952 0 0 1 .375-.392c.166-.096.355-.144.569-.144zm-32.385.08c.203 0 .387.049.552.145.166.096.296.232.392.408.102.176.152.389.152.64 0 .245-.05.458-.152.64a1.032 1.032 0 0 1-.392.408 1.08 1.08 0 0 1-.552.144c-.208 0-.394-.048-.56-.144a1.09 1.09 0 0 1-.4-.409 1.349 1.349 0 0 1-.144-.64c0-.25.048-.463.144-.64a1.09 1.09 0 0 1 .4-.407c.166-.096.352-.144.56-.144zm-22.94 1.544H455v.44a.87.87 0 0 1-.36.44 1.094 1.094 0 0 1-.56.145c-.22 0-.393-.046-.521-.137a.463.463 0 0 1-.184-.384c0-.144.053-.264.16-.36.112-.096.315-.144.608-.144zm12.9 0h.856v.44a.87.87 0 0 1-.36.44 1.094 1.094 0 0 1-.56.145c-.218 0-.392-.046-.52-.137a.463.463 0 0 1-.183-.384c0-.144.052-.264.159-.36.112-.096.315-.144.608-.144zm31.48 0h.856v.44a.869.869 0 0 1-.36.44 1.094 1.094 0 0 1-.56.145c-.218 0-.392-.046-.52-.137a.463.463 0 0 1-.184-.384c0-.144.054-.264.16-.36.112-.096.315-.144.608-.144zm-8.509 12.117a2.9 2.9 0 0 0-1.065.19 2.54 2.54 0 0 0-.856.53c-.24.23-.428.503-.564.814-.132.31-.196.652-.196 1.024s.064.713.196 1.023c.136.31.324.581.564.812.24.23.525.408.85.535.33.123.684.184 1.065.184.433 0 .822-.074 1.166-.225.348-.15.64-.369.875-.656l-.736-.678c-.169.198-.357.345-.564.443a1.62 1.62 0 0 1-.678.143c-.23 0-.441-.039-.634-.114a1.445 1.445 0 0 1-.504-.323 1.537 1.537 0 0 1-.33-.504 1.74 1.74 0 0 1-.113-.64c0-.236.038-.451.113-.644a1.455 1.455 0 0 1 .834-.827c.193-.075.403-.111.634-.111.245 0 .471.047.678.146.207.094.395.238.564.431l.736-.679a2.224 2.224 0 0 0-.875-.65 2.864 2.864 0 0 0-1.16-.224zm-39.288 1.007c-.366 0-.689.067-.97.204-.28.136-.5.324-.656.558l.691.443a.93.93 0 0 1 .368-.31c.148-.067.307-.098.478-.098.214 0 .376.043.485.133.113.085.172.21.172.374a.865.865 0 0 1-.152.45 1.67 1.67 0 0 1-.276.304l-1.58 1.493v.611h3.095v-.77h-1.763l.945-.89c.191-.18.333-.341.43-.486a1.23 1.23 0 0 0 .2-.408c.035-.133.051-.264.051-.396 0-.25-.062-.465-.19-.644a1.198 1.198 0 0 0-.532-.415 1.93 1.93 0 0 0-.796-.152zm-15.511.07v4.092h2.999v-.77h-2.051v-3.322zm3.43 0v.76h.817v3.332h.948v-4.092zm6.861 0v4.092h3.002v-.77h-2.054v-3.322zm10.97 0v4.092h2.998v-.77h-2.051v-3.322zm3.81 0v.76h1.739l-.84.952v.628h.431c.269 0 .466.043.586.133.121.09.181.214.181.37 0 .164-.066.29-.203.384-.136.093-.326.142-.564.142-.21 0-.418-.035-.624-.1a1.904 1.904 0 0 1-.542-.27l-.37.726c.194.14.432.248.712.326.28.074.565.11.85.11.39 0 .707-.061.957-.186s.437-.286.558-.485c.12-.202.18-.417.18-.647 0-.354-.129-.645-.386-.871-.18-.159-.423-.26-.723-.308l.922-1.048v-.616zm29.39 5.43a.649.649 0 0 0-.648.65v9.169l-.516 1.302H466.25v-5.464h-5.575v-5.556h-1.407v5.556h-9.658v-5.556h-1.407v5.556h-9.657v-5.556h-1.407v5.556h-5.575v16.04h34.686v-5.222h20.148l-.527 1.327-.513 1.297-.07.177a.649.649 0 0 0 1.205.479l.26-.656c.479-1.315.088-.26.513-1.297l3.059-7.736v-9.416c0-.36-.29-.65-.65-.65zm-55.44 7.28h30.391v11.803zm-1.05 1.21 29.834 11.584h-29.833zm33.064 3.928h21.752l-1.094 2.76H466.25zm23.414 5.38c-.36 0-.65.291-.65.65v9.591a.65.65 0 1 0 1.3 0v-9.59c0-.36-.291-.65-.65-.65zm.018 12.622c-.446 0-.819.067-1.116.203-.293.13-.513.308-.662.534-.144.22-.216.466-.216.736 0 .253.05.46.148.622.104.162.237.293.4.392.161.1.34.18.533.244.199.063.394.117.588.162.198.04.379.085.541.135.162.045.293.106.392.182.099.072.148.171.148.297 0 .1-.031.188-.094.264a.633.633 0 0 1-.297.183c-.131.04-.305.06-.52.06a2.738 2.738 0 0 1-1.562-.493l-.372.824c.212.163.491.296.838.4.347.099.71.148 1.088.148.45 0 .822-.068 1.115-.203.297-.135.521-.313.67-.534.148-.22.222-.464.222-.73a1.124 1.124 0 0 0-.547-1.007 2.259 2.259 0 0 0-.54-.236 8.673 8.673 0 0 0-.589-.156c-.194-.045-.372-.09-.534-.135a1.22 1.22 0 0 1-.392-.176.358.358 0 0 1-.148-.297c0-.103.029-.194.088-.27a.6.6 0 0 1 .29-.196c.135-.05.309-.074.52-.074.212 0 .429.03.65.094.22.059.441.15.662.277l.338-.831a2.473 2.473 0 0 0-.764-.311 3.605 3.605 0 0 0-.878-.108z" transform="translate(-935.35 -1402.487) scale(3.02478)"/>
    <path d="M517.971 686.583q-1.015 0-1.945-.266-.93-.278-1.498-.712l.665-1.474q.543.386 1.28.64.75.242 1.51.242.58 0 .93-.109.363-.12.532-.326.169-.206.169-.471 0-.338-.266-.532-.266-.205-.7-.326-.435-.133-.967-.242-.52-.12-1.05-.29-.52-.169-.955-.434-.435-.266-.713-.7-.265-.436-.265-1.112 0-.725.386-1.317.399-.604 1.184-.954.797-.363 1.993-.363.797 0 1.57.194.773.18 1.365.555l-.604 1.486q-.591-.338-1.183-.495-.592-.17-1.16-.17t-.93.134q-.363.133-.52.35-.157.205-.157.483 0 .326.266.532.266.193.7.314.436.12.955.241.532.121 1.051.278.531.157.966.423.435.266.701.7.278.435.278 1.1 0 .712-.399 1.304-.398.592-1.196.955-.785.362-1.993.362z" style="font-weight:700;font-size:14.3398px;line-height:1;font-family:Montserrat;-inkscape-font-specification:'Montserrat Bold';text-align:center;letter-spacing:-.177007px;word-spacing:.0746862px;text-anchor:middle;fill:#000;fill-opacity:1;stroke-width:.503315;stroke-linecap:round;stroke-linejoin:round;paint-order:stroke fill markers" aria-label="S" transform="translate(-935.35 -1402.487) scale(3.02478)"/>
</svg>
