<?xml version="1.0" encoding="UTF-8" standalone="no"?>
<!-- Created with Inkscape (http://www.inkscape.org/) -->

<svg
   width="1000"
   height="1000"
   viewBox="0 0 1000 1000"
   version="1.1"
   id="svg1"
   inkscape:version="1.4 (86a8ad7, 2024-10-11)"
   sodipodi:docname="exp1 - IMG2 - inkscape.svg"
   xml:space="preserve"
   inkscape:export-filename="exp1 - IMG2.svg"
   inkscape:export-xdpi="96"
   inkscape:export-ydpi="96"
   xmlns:inkscape="http://www.inkscape.org/namespaces/inkscape"
   xmlns:sodipodi="http://sodipodi.sourceforge.net/DTD/sodipodi-0.dtd"
   xmlns:xlink="http://www.w3.org/1999/xlink"
   xmlns="http://www.w3.org/2000/svg"
   xmlns:svg="http://www.w3.org/2000/svg"><sodipodi:namedview
     id="namedview1"
     pagecolor="#505050"
     bordercolor="#eeeeee"
     borderopacity="1"
     inkscape:showpageshadow="0"
     inkscape:pageopacity="0"
     inkscape:pagecheckerboard="0"
     inkscape:deskcolor="#505050"
     inkscape:document-units="px"
     inkscape:zoom="3.8954759"
     inkscape:cx="173.66299"
     inkscape:cy="211.14237"
     inkscape:window-width="1920"
     inkscape:window-height="991"
     inkscape:window-x="-9"
     inkscape:window-y="-9"
     inkscape:window-maximized="1"
     inkscape:current-layer="g1"
     showguides="true" /><defs
     id="defs1"><linearGradient
       id="linearGradient86"
       inkscape:collect="always"><stop
         style="stop-color:#570b0b;stop-opacity:1;"
         offset="0"
         id="stop86" /><stop
         style="stop-color:#380000;stop-opacity:1;"
         offset="1"
         id="stop87" /></linearGradient><linearGradient
       id="linearGradient84"
       inkscape:collect="always"><stop
         style="stop-color:#43a0ff;stop-opacity:1;"
         offset="0"
         id="stop84" /><stop
         style="stop-color:#2391ff;stop-opacity:1;"
         offset="0.34722215"
         id="stop88" /><stop
         style="stop-color:#0080ff;stop-opacity:1;"
         offset="1"
         id="stop85" /></linearGradient><linearGradient
       id="linearGradient82"
       inkscape:collect="always"><stop
         style="stop-color:#ac5229;stop-opacity:1;"
         offset="0"
         id="stop82" /><stop
         style="stop-color:#4f2413;stop-opacity:1;"
         offset="1"
         id="stop83" /></linearGradient><linearGradient
       id="linearGradient8"
       inkscape:collect="always"><stop
         style="stop-color:#f97a1e;stop-opacity:1;"
         offset="0"
         id="stop8" /><stop
         style="stop-color:#cc4c05;stop-opacity:1;"
         offset="0.51238918"
         id="stop10" /><stop
         style="stop-color:#9d3f0d;stop-opacity:1;"
         offset="1"
         id="stop9" /></linearGradient><linearGradient
       id="linearGradient2"
       inkscape:collect="always"><stop
         style="stop-color:#ef762f;stop-opacity:1;"
         offset="0"
         id="stop2" /><stop
         style="stop-color:#bf4105;stop-opacity:1;"
         offset="0.49721557"
         id="stop4" /><stop
         style="stop-color:#a64109;stop-opacity:1;"
         offset="1"
         id="stop3" /></linearGradient><linearGradient
       inkscape:collect="always"
       xlink:href="#linearGradient2"
       id="linearGradient3"
       x1="0"
       y1="129.24225"
       x2="1000"
       y2="129.24225"
       gradientUnits="userSpaceOnUse"
       gradientTransform="matrix(0.9023352,0,0,1,48.832389,0)" /><linearGradient
       inkscape:collect="always"
       xlink:href="#linearGradient8"
       id="linearGradient9"
       x1="0"
       y1="65.347198"
       x2="1000.0001"
       y2="65.347198"
       gradientUnits="userSpaceOnUse" /><linearGradient
       inkscape:collect="always"
       xlink:href="#linearGradient8"
       id="linearGradient15"
       x1="157.29028"
       y1="732.61475"
       x2="842.70972"
       y2="732.61475"
       gradientUnits="userSpaceOnUse" /><filter
       style="color-interpolation-filters:sRGB;"
       inkscape:label="Drop Shadow"
       id="filter71"
       x="-0.08470587"
       y="-0.64812175"
       width="1.1794117"
       height="2.3727579"><feFlood
         result="flood"
         in="SourceGraphic"
         flood-opacity="0.286275"
         flood-color="rgb(0,0,0)"
         id="feFlood70" /><feGaussianBlur
         result="blur"
         in="SourceGraphic"
         stdDeviation="35.294117"
         id="feGaussianBlur70" /><feOffset
         result="offset"
         in="blur"
         dx="10.000000"
         dy="10.000000"
         id="feOffset70" /><feComposite
         result="comp1"
         operator="in"
         in="flood"
         in2="offset"
         id="feComposite70" /><feComposite
         result="comp2"
         operator="over"
         in="SourceGraphic"
         in2="comp1"
         id="feComposite71" /></filter><filter
       style="color-interpolation-filters:sRGB;"
       inkscape:label="Drop Shadow"
       id="filter73"
       x="-0.12358255"
       y="-0.68624636"
       width="1.2617547"
       height="2.4535079"><feFlood
         result="flood"
         in="SourceGraphic"
         flood-opacity="0.286275"
         flood-color="rgb(0,0,0)"
         id="feFlood71" /><feGaussianBlur
         result="blur"
         in="SourceGraphic"
         stdDeviation="35.294117"
         id="feGaussianBlur71" /><feOffset
         result="offset"
         in="blur"
         dx="10.000000"
         dy="10.000000"
         id="feOffset71" /><feComposite
         result="comp1"
         operator="in"
         in="flood"
         in2="offset"
         id="feComposite72" /><feComposite
         result="comp2"
         operator="over"
         in="SourceGraphic"
         in2="comp1"
         id="feComposite73" /></filter><filter
       style="color-interpolation-filters:sRGB;"
       inkscape:label="Drop Shadow"
       id="filter75"
       x="-0.093874071"
       y="-0.15606002"
       width="1.1988305"
       height="1.3305438"><feFlood
         result="flood"
         in="SourceGraphic"
         flood-opacity="0.286275"
         flood-color="rgb(0,0,0)"
         id="feFlood73" /><feGaussianBlur
         result="blur"
         in="SourceGraphic"
         stdDeviation="35.294117"
         id="feGaussianBlur73" /><feOffset
         result="offset"
         in="blur"
         dx="10.000000"
         dy="10.000000"
         id="feOffset73" /><feComposite
         result="comp1"
         operator="in"
         in="flood"
         in2="offset"
         id="feComposite74" /><feComposite
         result="comp2"
         operator="over"
         in="SourceGraphic"
         in2="comp1"
         id="feComposite75" /></filter><filter
       style="color-interpolation-filters:sRGB;"
       inkscape:label="Drop Shadow"
       id="filter79"
       x="-0.097484367"
       y="-0.10720771"
       width="1.215278"
       height="1.2367504"><feFlood
         result="flood"
         in="SourceGraphic"
         flood-opacity="0.286275"
         flood-color="rgb(0,0,0)"
         id="feFlood78" /><feGaussianBlur
         result="blur"
         in="SourceGraphic"
         stdDeviation="20.000000"
         id="feGaussianBlur78" /><feOffset
         result="offset"
         in="blur"
         dx="10.000000"
         dy="10.000000"
         id="feOffset78" /><feComposite
         result="comp1"
         operator="in"
         in="flood"
         in2="offset"
         id="feComposite78" /><feComposite
         result="comp2"
         operator="over"
         in="SourceGraphic"
         in2="comp1"
         id="feComposite79" /></filter><linearGradient
       inkscape:collect="always"
       xlink:href="#linearGradient82"
       id="linearGradient83"
       x1="0"
       y1="971.49506"
       x2="1000"
       y2="971.49506"
       gradientUnits="userSpaceOnUse" /><linearGradient
       inkscape:collect="always"
       xlink:href="#linearGradient84"
       id="linearGradient85"
       x1="0"
       y1="0"
       x2="1000"
       y2="1000"
       gradientUnits="userSpaceOnUse" /><linearGradient
       inkscape:collect="always"
       xlink:href="#linearGradient86"
       id="linearGradient87"
       x1="0"
       y1="763.83618"
       x2="1000"
       y2="763.83618"
       gradientUnits="userSpaceOnUse" /></defs><g
     inkscape:label="Camada 1"
     inkscape:groupmode="layer"
     id="layer1"><rect
       style="fill:url(#linearGradient85);fill-opacity:1;stroke-linecap:round;stroke-linejoin:round;stroke-dasharray:5, 9;paint-order:markers stroke fill"
       id="rect80"
       width="1000"
       height="1000"
       x="0"
       y="0"
       ry="0" /><rect
       style="fill:url(#linearGradient87);fill-opacity:1;stroke-width:0.485967;stroke-linecap:round;stroke-linejoin:round;stroke-dasharray:2.42983, 4.3737;paint-order:markers stroke fill"
       id="rect81"
       width="1000"
       height="236.1638"
       x="0"
       y="763.83618"
       ry="0" /><g
       id="g79"
       transform="matrix(0.92939508,0,0,0.92939508,37.403613,-5.9068671)"><g
         id="g76"
         transform="translate(244,108.06016)"
         style="filter:url(#filter79)"
         inkscape:label="Planta"><path
           style="display:inline;fill:#3eac92"
           d="m 312.127,292.149 c 10.88,-28.608 18.982,-61.79 18.982,-97.175 C 331.11,87.293 256.073,0 256.073,0 c 0,0 -75.037,87.293 -75.037,194.974 0,35.55 8.179,68.878 19.136,97.576 v 116.399 l 55.39,26.313 60.026,-30.32 z"
           id="path1-5" /><path
           id="path2"
           style="display:inline;fill:#7cd8a4"
           d="m 415.25781,141.67031 c 0,0 -52.24759,13.73584 -80.93359,55.33984 -28.686,41.604 -22.94922,95.32227 -22.94922,95.32227 0,0 0.63444,-0.18813 0.84961,-0.24805 -48.95634,64.54339 -55.93728,143.89638 -56.22266,147.39258 -0.28405,-3.47981 -7.23714,-82.48989 -55.89843,-146.96094 0.67139,0.19577 1.52148,0.44531 1.52148,0.44531 0,0 5.73678,-53.71826 -22.94922,-95.32226 -28.686,-41.604 -80.933593,-55.33985 -80.933592,-55.33984 0,0 -4.455811,41.87359 14.242192,80.31445 C 59.092869,197.66582 9.8066406,193.92617 9.8066406,193.92617 c 0,0 7.7420934,102.51548 75.7460934,170.52148 67.733056,67.73505 169.565476,75.66627 170.376956,75.72852 -1e-5,5e-5 -0.002,0.0176 -0.002,0.0176 0,0 0.081,-0.008 0.082,-0.008 6.4e-4,5e-5 0.0645,0.006 0.0645,0.006 0,0 -0.002,-0.0136 -0.002,-0.0137 0.81144,-0.0623 102.64193,-7.9974 170.375,-75.73047 68.005,-68.004 75.74609,-170.52148 75.74609,-170.52148 0,0 -48.72718,3.68721 -101.27734,28.25586 18.80915,-38.49481 14.34179,-80.51172 14.34179,-80.51172 z" /><path
           style="display:inline;opacity:0.21;fill:#266659"
           d="m 400.939,222.166 c 18.799,-38.489 14.319,-80.495 14.319,-80.495 0,0 -37.863,9.96 -66.823,38.59 -12.648,89.188 -48.237,204.494 -145.938,249.387 17.214,4.909 31.833,7.618 41.428,9.055 l 5.901,5.901 c 0.232,0.32 0.483,0.63 0.772,0.918 1.471,1.471 3.4,2.207 5.329,2.207 0.024,0 0.049,-0.003 0.073,-0.003 0.024,0 0.049,0.003 0.073,0.003 1.928,0 3.858,-0.736 5.329,-2.207 0.288,-0.288 0.54,-0.599 0.772,-0.918 l 5.901,-5.901 c 29.127,-4.363 104.552,-20.434 158.373,-74.255 68.004,-68.004 75.745,-170.522 75.745,-170.522 0,0 -48.713,3.681 -101.254,28.24 z"
           id="path22" /><path
           id="path3"
           style="display:inline;fill:#266659"
           d="m 256.07227,27.371481 c -4.162,0 -7.53516,3.394031 -7.53516,7.582031 V 142.55703 L 227.89258,121.9125 c -2.943,-2.942 -7.7152,-2.942 -10.6582,0 -2.94301,2.944 -2.94301,7.7142 0,10.6582 l 31.30273,31.30273 v 39.58594 l -20.64453,-20.64648 c -2.943,-2.942 -7.7152,-2.942 -10.6582,0 -2.94301,2.944 -2.94301,7.7142 0,10.6582 l 31.30273,31.30273 V 264.35 l -20.64453,-20.64649 c -2.943,-2.942 -7.7152,-2.942 -10.6582,0 -2.94301,2.944 -2.94301,7.71616 0,10.66016 l 31.30273,31.30273 V 421.99648 L 195.77734,369.23672 V 330.0375 c 0,-4.163 -3.37215,-7.53516 -7.53515,-7.53516 -4.163,0 -7.53711,3.37216 -7.53711,7.53516 v 24.12695 l -23.38086,-23.38086 v -39.20117 c 0,-4.163 -3.37511,-7.53516 -7.53711,-7.53516 -4.162,0 -7.53516,3.37216 -7.53516,7.53516 v 24.13086 l -23.38867,-23.38867 v -39.20118 c 0,-4.163 -3.37314,-7.53711 -7.53516,-7.53711 -4.16298,0 -7.5371,3.37411 -7.5371,7.53711 v 24.12891 L 47.052734,220.51406 c -1.4715,-1.471 -3.399375,-2.20703 -5.328125,-2.20703 -1.92875,0 -3.858578,0.73603 -5.330078,2.20703 -2.943,2.944 -2.943,7.7142 0,10.6582 l 56.738281,56.73828 H 69.001953 c -4.163,0 -7.537109,3.37411 -7.537109,7.53711 0,4.163 3.375109,7.53516 7.537109,7.53516 h 39.203127 l 23.38672,23.38672 h -24.12891 c -4.163,0 -7.537109,3.37411 -7.537109,7.53711 0,4.164 3.375109,7.53711 7.537109,7.53711 h 39.20313 l 23.38281,23.38281 h -24.13086 c -4.163,0 -7.53711,3.37411 -7.53711,7.53711 0,4.163 3.37511,7.53515 7.53711,7.53515 h 39.20312 l 64.82422,64.82422 c 0.20667,0.27267 0.40364,0.55004 0.65235,0.79883 1.471,1.471 3.40012,2.20703 5.32812,2.20703 0.0249,0 0.0493,-0.008 0.0742,-0.008 0.0242,2.3e-4 0.048,0.008 0.0723,0.008 1.929,0 3.85907,-0.73603 5.33007,-2.20703 0.24871,-0.24879 0.44568,-0.52613 0.65235,-0.79883 l 64.82422,-64.82422 h 39.20117 c 4.162,0 7.53711,-3.37215 7.53711,-7.53515 0,-4.163 -3.37511,-7.53711 -7.53711,-7.53711 h -24.12891 l 23.38281,-23.38281 h 39.20118 c 4.162,0 7.53711,-3.37407 7.53711,-7.53907 0,-4.163 -3.37511,-7.53515 -7.53711,-7.53515 H 380.4082 l 23.38672,-23.38672 h 39.20117 c 4.162,0 7.53711,-3.37216 7.53711,-7.53516 0,-4.163 -3.37511,-7.53711 -7.53711,-7.53711 h -24.1289 l 52.2539,-52.2539 c 2.943,-2.944 2.943,-7.71616 0,-10.66016 -1.4715,-1.471 -3.39937,-2.20508 -5.32812,-2.20508 -1.92875,0 -3.85663,0.73408 -5.32813,2.20508 l -52.25781,52.25781 v -24.13086 c 0,-4.163 -3.37315,-7.53711 -7.53515,-7.53711 -4.16202,0 -7.53516,3.37411 -7.53516,7.53711 v 39.20118 l -23.39063,23.39062 v -24.13281 c 0,-4.163 -3.37315,-7.53711 -7.53515,-7.53711 -4.163,0 -7.53711,3.37411 -7.53711,7.53711 v 39.20508 l -23.38086,23.38086 V 330.0375 c 0,-4.163 -3.37316,-7.53516 -7.53516,-7.53516 -4.162,0 -7.53711,3.37216 -7.53711,7.53516 v 39.20312 L 263.60938,421.85 V 285.6664 l 31.30078,-31.30273 c 2.943,-2.944 2.943,-7.71616 0,-10.66016 -2.943,-2.942 -7.71325,-2.942 -10.65625,0 l -20.64453,20.64453 v -39.57422 l 31.30078,-31.30273 c 2.943,-2.944 2.943,-7.7142 0,-10.6582 -2.943,-2.942 -7.71325,-2.942 -10.65625,0 l -20.64453,20.64453 v -39.58399 l 31.30078,-31.30273 c 2.943,-2.944 2.943,-7.7142 0,-10.6582 -2.943,-2.942 -7.71325,-2.942 -10.65625,0 l -20.64453,20.64257 V 34.953512 c -10e-6,-4.189 -3.37511,-7.582031 -7.53711,-7.582031 z M 397.49609,159.86757 c -2.41941,-0.0227 -4.805,1.11915 -6.28125,3.25977 l -30.875,44.95898 -0.73828,-4.01367 c -0.752,-4.094 -4.68139,-6.79483 -8.77539,-6.04883 -4.094,0.752 -6.80183,4.67944 -6.04883,8.77344 l 3.47266,18.89258 -25.8418,37.62695 c -2.364,3.428 -1.49926,8.12138 1.92774,10.48438 1.306,0.9 2.79453,1.33203 4.26953,1.33203 2.395,0 4.74989,-1.13981 6.21289,-3.25781 l 25.91602,-37.73828 18.71093,-3.4375 c 4.094,-0.752 6.80183,-4.67944 6.04883,-8.77344 -0.752,-4.094 -4.67744,-6.79678 -8.77344,-6.05078 l -3.9414,0.72461 30.84375,-44.91407 c 2.364,-3.428 1.50222,-8.12037 -1.92578,-10.48437 -1.2855,-0.8865 -2.74953,-1.32036 -4.20118,-1.33399 z m -278.41015,6.04297 c -1.45153,0.0138 -2.91567,0.44666 -4.20117,1.33203 -3.426,2.364 -4.28879,7.05738 -1.92579,10.48438 l 26.3379,39.33398 -3.01954,-0.55468 c -4.091,-0.751 -8.02043,1.95778 -8.77343,6.05078 -0.753,4.094 1.95678,8.02239 6.05078,8.77539 L 151,234.5375 l 26.33789,39.33398 c 1.462,2.12 3.81594,3.25781 6.21094,3.25781 1.475,0 2.96448,-0.43203 4.27148,-1.33203 3.426,-2.364 4.28878,-7.05737 1.92578,-10.48437 l -25.23437,-37.68555 3.71094,-20.19922 c 0.753,-4.094 -1.95679,-8.02044 -6.05078,-8.77344 -4.08601,-0.749 -8.02044,1.95483 -8.77344,6.04883 l -0.91211,4.96485 -27.11914,-40.5 c -1.47688,-2.14125 -3.86204,-3.28087 -6.28125,-3.25782 z" /></g><g
         id="g92"
         inkscape:label="Sensor"><rect
           style="fill:#c3c3c3;fill-opacity:1;stroke-linecap:round;stroke-linejoin:round;stroke-dasharray:5, 9;paint-order:markers stroke fill"
           id="rect79"
           width="55.908142"
           height="185.13625"
           x="665.32642"
           y="358.86188"
           ry="9.4390392" /><path
           style="font-weight:600;font-size:31.3915px;line-height:1;font-family:Montserrat;-inkscape-font-specification:'Montserrat Semi-Bold';letter-spacing:0px;word-spacing:0.840845px;fill:#303030;stroke-width:0.840845;stroke-linecap:round;stroke-linejoin:round;stroke-dasharray:4.20422, 7.5676;paint-order:markers stroke fill"
           d="m -498.62698,704.17334 v -21.97405 h 4.08089 v 21.97405 z m -15.44462,0 v -21.97405 h 4.0809 v 21.97405 z m 3.73559,-9.41745 v -3.48446 h 12.02294 v 3.48446 z m 31.14035,9.73136 q -4.52037,0 -7.09448,-2.54271 -2.54271,-2.54271 -2.54271,-7.34561 v -12.39964 h 4.0809 v 12.24268 q 0,3.39029 1.44401,4.92847 1.4754,1.53818 4.14367,1.53818 2.66828,0 4.11229,-1.53818 1.44401,-1.53818 1.44401,-4.92847 v -12.24268 h 4.01811 v 12.39964 q 0,4.8029 -2.5741,7.34561 -2.54271,2.54271 -7.0317,2.54271 z m 15.31904,-0.31391 v -21.97405 h 3.35889 l 9.6058,16.04106 h -1.75793 l 9.44885,-16.04106 h 3.35889 l 0.0314,21.97405 h -3.86116 l -0.0314,-15.91549 h 0.81618 l -8.03622,13.40417 h -1.82071 l -8.16179,-13.40417 h 0.94174 v 15.91549 z m 29.97888,0 v -21.97405 h 4.08089 v 21.97405 z m 10.01389,0 v -21.97405 h 9.6058 q 3.57863,0 6.2783,1.38123 2.69967,1.38122 4.20646,3.82976 1.5068,2.44854 1.5068,5.77603 0,3.29611 -1.5068,5.77604 -1.50679,2.44854 -4.20646,3.82976 -2.69967,1.38123 -6.2783,1.38123 z m 4.0809,-3.45307 h 5.33655 q 2.44854,0 4.26925,-0.94174 1.8207,-0.94175 2.79384,-2.63689 1.00453,-1.69514 1.00453,-3.95533 0,-2.29157 -1.00453,-3.95532 -0.97314,-1.69515 -2.79384,-2.63689 -1.82071,-0.94175 -4.26925,-0.94175 h -5.33655 z m 22.09961,3.67281 q -1.06731,0 -1.82071,-0.722 -0.75339,-0.7534 -0.75339,-1.88349 0,-1.19288 0.75339,-1.88349 0.7534,-0.72201 1.82071,-0.72201 1.06731,0 1.82071,0.72201 0.75339,0.69061 0.75339,1.88349 0,1.13009 -0.75339,1.88349 -0.7534,0.722 -1.82071,0.722 z"
           id="text92"
           transform="rotate(-90)"
           aria-label="HUMID." /></g><g
         id="g75"
         inkscape:label="Vaso"
         transform="matrix(0.543657,0,0,0.543657,223.19243,523.33099)"><path
           style="fill:url(#linearGradient3);fill-opacity:1;stroke-width:0.949915;stroke-linecap:round;stroke-linejoin:round;stroke-dasharray:4.74957, 8.54922;paint-order:markers stroke fill;filter:url(#filter75)"
           d="M 48.83239,129.24225 190.27206,672.01984 H 809.72794 L 951.16761,129.24225 Z"
           id="path1" /><rect
           style="fill:url(#linearGradient9);fill-opacity:1;stroke-linecap:round;stroke-linejoin:round;stroke-dasharray:5, 9;paint-order:markers stroke fill;filter:url(#filter71)"
           id="rect7"
           width="1000.0001"
           height="130.6944"
           x="0"
           y="0"
           ry="27.724468" /><rect
           style="fill:url(#linearGradient15);fill-opacity:1;stroke-linecap:round;stroke-linejoin:round;stroke-dasharray:5, 9;paint-order:markers stroke fill;filter:url(#filter73)"
           id="rect8"
           width="685.41943"
           height="123.43363"
           x="157.29028"
           y="670.89795"
           ry="27.724468" /></g></g><rect
       style="fill:url(#linearGradient83);fill-opacity:1;stroke-width:0.168834;stroke-linecap:round;stroke-linejoin:round;stroke-dasharray:0.844169, 1.51951;paint-order:markers stroke fill"
       id="rect82"
       width="1000"
       height="28.504923"
       x="0"
       y="971.49506"
       ry="0" /><g
       id="g1"
       transform="translate(0,-57.36032)"><rect
         style="fill:#c3c3c3;fill-opacity:1;stroke-width:1.20175;stroke-linecap:round;stroke-linejoin:round;stroke-dasharray:6.00876, 10.8158;paint-order:markers stroke fill"
         id="rect89"
         width="67.187698"
         height="224.75069"
         x="169.42732"
         y="-287.89151"
         ry="11.343375"
         transform="rotate(90)" /><rect
         style="fill:#c3c3c3;fill-opacity:1;stroke-width:1.20175;stroke-linecap:round;stroke-linejoin:round;stroke-dasharray:6.00876, 10.8158;paint-order:markers stroke fill"
         id="rect90"
         width="67.187714"
         height="223.72386"
         x="260.30197"
         y="-287.89151"
         ry="11.343375"
         transform="rotate(90)" /><path
         style="font-weight:600;font-size:29.1751px;line-height:1;font-family:Montserrat;-inkscape-font-specification:'Montserrat Semi-Bold';text-align:center;letter-spacing:0px;word-spacing:0.781477px;text-anchor:middle;fill:#303030;stroke-width:1.01049;stroke-linecap:round;stroke-linejoin:round;stroke-dasharray:5.05242, 9.09437;paint-order:markers stroke fill"
         d="m 112.39109,216.60208 q -3.01799,0 -5.62099,-0.98084 -2.56529,-1.01857 -4.48925,-2.82937 -1.88624,-1.84851 -2.942532,-4.33834 -1.056294,-2.48984 -1.056294,-5.43237 0,-2.94252 1.056294,-5.43236 1.056292,-2.48984 2.980252,-4.30062 1.92397,-1.84851 4.48925,-2.82937 2.56528,-1.01856 5.62098,-1.01856 3.24434,0 5.9228,1.13174 2.67846,1.09402 4.52697,3.28205 l -3.16888,2.98027 q -1.43353,-1.54672 -3.2066,-2.30121 -1.77306,-0.79223 -3.84792,-0.79223 -2.07488,0 -3.81021,0.67905 -1.69762,0.67904 -2.98026,1.92396 -1.24492,1.24492 -1.96169,2.94254 -0.67904,1.69761 -0.67904,3.73474 0,2.03714 0.67904,3.73476 0.71677,1.69761 1.96169,2.94253 1.28264,1.24491 2.98026,1.92397 1.73533,0.67904 3.81021,0.67904 2.07486,0 3.84792,-0.75449 1.77307,-0.79223 3.2066,-2.37668 l 3.16888,3.01799 q -1.84851,2.15031 -4.52697,3.28206 -2.67846,1.13174 -5.96051,1.13174 z m 33.42415,-0.37725 V 189.8175 h 4.90422 v 26.40733 z m -18.56058,0 V 189.8175 h 4.90421 v 26.40733 z m 4.48925,-11.31743 v -4.18745 h 14.44858 v 4.18745 z m 37.42294,11.69468 q -5.43236,0 -8.5258,-3.0557 -3.0557,-3.05572 -3.0557,-8.8276 V 189.8175 h 4.90422 v 14.71266 q 0,4.07427 1.73534,5.92279 1.77307,1.84851 4.97967,1.84851 3.2066,0 4.94194,-1.84851 1.73534,-1.84852 1.73534,-5.92279 V 189.8175 h 4.82876 v 14.90128 q 0,5.77188 -3.09342,8.8276 -3.05571,3.0557 -8.45035,3.0557 z m 26.2187,-0.37725 -11.54378,-26.40733 h 5.3192 l 10.29885,23.87978 h -3.05571 l 10.41204,-23.87978 h 4.90423 l -11.50606,26.40733 z m 14.56172,0 11.88331,-26.40733 h 4.82876 l 11.92104,26.40733 h -5.13058 l -10.2234,-23.80432 h 1.96168 l -10.18568,23.80432 z m 5.47009,-6.11141 1.32037,-3.84793 h 14.25997 l 1.32036,3.84793 z"
         id="text90"
         aria-label="CHUVA" /><path
         d="m 108.78111,307.36355 q -3.09447,0 -5.93106,-0.81046 -2.8366,-0.8473 -4.568027,-2.1735 l 2.026137,-4.49434 q 1.65775,1.17884 3.90493,1.95246 2.28401,0.73678 4.60486,0.73678 1.76827,0 2.83659,-0.33155 1.10517,-0.36839 1.62092,-0.99465 0.51574,-0.62626 0.51574,-1.43672 0,-1.03149 -0.81045,-1.62091 -0.81046,-0.62626 -2.13666,-0.99465 -1.3262,-0.40523 -2.94711,-0.73678 -1.58408,-0.36839 -3.20499,-0.88413 -1.58407,-0.51575 -2.91027,-1.3262 -1.3262,-0.81046 -2.173496,-2.13666 -0.810456,-1.3262 -0.810456,-3.38918 0,-2.21033 1.178845,-4.01544 1.215687,-1.84194 3.610217,-2.91027 2.43136,-1.10517 6.07841,-1.10517 2.43137,0 4.78906,0.58942 2.35769,0.55259 4.1628,1.69459 l -1.84195,4.53119 q -1.8051,-1.03149 -3.61021,-1.5104 -1.80511,-0.51574 -3.53654,-0.51574 -1.73142,0 -2.83659,0.40523 -1.10517,0.40522 -1.58407,1.06832 -0.47891,0.62626 -0.47891,1.47356 0,0.99465 0.81046,1.62091 0.81045,0.58942 2.13665,0.95781 1.3262,0.36839 2.91028,0.73678 1.62091,0.36839 3.20498,0.8473 1.62091,0.4789 2.94711,1.28936 1.3262,0.81045 2.13666,2.13665 0.84729,1.3262 0.84729,3.35234 0,2.1735 -1.21568,3.9786 -1.21568,1.80511 -3.64705,2.91028 -2.39453,1.10517 -6.07842,1.10517 z m 29.09048,0 q -3.05763,0 -5.67319,-0.99466 -2.57873,-0.99465 -4.49435,-2.79975 -1.87878,-1.80511 -2.94711,-4.23648 -1.03149,-2.43136 -1.03149,-5.3048 0,-2.87343 1.03149,-5.3048 1.06833,-2.43137 2.98395,-4.23647 1.91562,-1.80511 4.49434,-2.79976 2.57873,-0.99465 5.59952,-0.99465 3.05763,0 5.59951,0.99465 2.57872,0.99465 4.45751,2.79976 1.91562,1.8051 2.98395,4.23647 1.06833,2.39453 1.06833,5.3048 0,2.87344 -1.06833,5.34164 -1.06833,2.43137 -2.98395,4.23648 -1.87879,1.76826 -4.45751,2.76291 -2.54188,0.99466 -5.56267,0.99466 z m -0.0368,-5.08377 q 1.73143,0 3.16814,-0.58943 1.47356,-0.58942 2.57873,-1.69459 1.10516,-1.10516 1.69459,-2.61556 0.62626,-1.51039 0.62626,-3.35234 0,-1.84194 -0.62626,-3.35234 -0.58943,-1.51039 -1.69459,-2.61556 -1.06833,-1.10517 -2.54189,-1.69459 -1.47355,-0.58942 -3.20498,-0.58942 -1.73143,0 -3.20499,0.58942 -1.43671,0.58942 -2.54188,1.69459 -1.10517,1.10517 -1.73143,2.61556 -0.58942,1.5104 -0.58942,3.35234 0,1.80511 0.58942,3.35234 0.62626,1.5104 1.69459,2.61556 1.10517,1.10517 2.57872,1.69459 1.47356,0.58943 3.20499,0.58943 z m 20.1386,4.6417 v -25.78723 h 5.9679 v 20.92449 h 12.93045 v 4.86274 z"
         id="text1"
         style="font-weight:bold;font-size:36.8389px;line-height:1;font-family:Montserrat;-inkscape-font-specification:'Montserrat Bold';letter-spacing:1.53496px;word-spacing:0.383739px;fill:#303030;stroke-width:0.383739;stroke-linecap:round;stroke-linejoin:round;stroke-dasharray:1.91869, 3.45365;paint-order:markers stroke fill"
         aria-label="SOL" /></g><rect
       style="fill:#303030;fill-opacity:1;stroke-linecap:round;stroke-linejoin:round;stroke-dasharray:5, 9;paint-order:markers stroke fill"
       id="rect88"
       width="23.617142"
       height="737.12317"
       x="58.529434"
       y="112.067"
       ry="6.4177012" /><rect
       style="fill:#303030;stroke-linecap:round;stroke-linejoin:round;stroke-dasharray:5, 9;paint-order:markers stroke fill"
       id="rect1"
       width="229.36208"
       height="26.138874"
       x="58.529434"
       y="439.85309"
       ry="6.4177012" /></g></svg>
