<svg width="1000" height="500" xml:space="preserve" xmlns:xlink="http://www.w3.org/1999/xlink" xmlns="http://www.w3.org/2000/svg">
    <defs>
        <linearGradient id="a">
            <stop style="stop-color:#723636;stop-opacity:1" offset="0"/>
            <stop style="stop-color:#572b2b;stop-opacity:1" offset="1"/>
        </linearGradient>
        <linearGradient xlink:href="#a" id="b" x1="192.703" y1="487.034" x2="192.877" y2="499.26" gradientUnits="userSpaceOnUse"/>
    </defs>
    <g style="display:inline">
        <path style="display:inline;fill:#848484;fill-opacity:1;stroke:none;stroke-width:.05;stroke-linecap:round;stroke-linejoin:miter;stroke-dasharray:none;stroke-opacity:1;paint-order:markers fill stroke" d="M741.402 456.969v27.222h7.778V456.97zm-389.617 1.767v27.223h7.78v-27.223z" transform="matrix(1.1244 0 0 1.1244 -124.046 -416.44)"/>
        <path d="M313.054 462.982q-1.963 0-4.061-.135-2.031-.068-4.197-.27-2.099-.272-3.994-.542-1.896-.339-3.452-.745v-7.92q2.03.203 4.603.338 2.572.136 5.348.203 2.775.068 5.28.068 2.572 0 4.4-.406 1.895-.474 2.91-1.557 1.016-1.15 1.016-3.114v-1.828q0-2.234-1.354-3.384-1.286-1.219-3.723-1.219h-4.265q-7.175 0-11.034-3.114-3.79-3.181-3.79-10.763v-2.437q0-7.311 4.196-10.696 4.197-3.384 11.982-3.384 2.776 0 5.483.27 2.776.271 5.28.677 2.573.339 4.4.745v7.92q-3.113-.203-6.972-.406-3.79-.203-7.04-.203-2.302 0-4.13.474-1.76.406-2.707 1.624-.948 1.219-.948 3.453v1.354q0 2.64 1.49 3.79 1.489 1.151 4.4 1.151h4.941q4.536 0 7.446 1.693 2.979 1.624 4.4 4.535 1.49 2.911 1.49 6.634v2.843q0 5.89-2.234 9.004-2.166 3.113-6.093 4.264-3.858 1.083-9.07 1.083zm42.828-.067q-4.13 0-7.718-.677-3.587-.745-6.295-2.505-2.64-1.828-4.13-5.01-1.421-3.249-1.421-8.258v-33.982h10.019v33.914q0 2.776 1.083 4.4 1.15 1.625 3.25 2.37 2.165.744 5.212.744 2.978 0 5.077-.744 2.166-.745 3.249-2.37 1.15-1.624 1.15-4.4v-33.914h10.087v33.982q0 5.01-1.49 8.259-1.488 3.181-4.129 5.01-2.64 1.76-6.227 2.504-3.52.677-7.717.677zm26.715-.339v-50.093h21.12q2.438 0 4.943.609 2.572.542 4.67 2.302 2.167 1.692 3.453 5.144 1.354 3.453 1.354 9.139t-1.354 9.206q-1.286 3.52-3.385 5.348-2.098 1.828-4.535 2.437-2.437.61-4.739.61-1.218 0-2.843-.068-1.625-.136-3.317-.339-1.625-.203-3.046-.338-1.422-.203-2.302-.339v16.382zm10.02-24.302h9.95q1.76 0 2.979-.812 1.286-.88 1.895-2.708.61-1.895.61-5.01 0-3.046-.678-4.806-.609-1.827-1.827-2.64-1.151-.812-2.776-.812h-10.154zm43.368 24.64q-1.625 0-3.724-.338-2.098-.27-4.061-1.354-1.896-1.083-3.182-3.249-1.218-2.234-1.218-6.092v-27.958q0-3.317 1.015-5.55 1.016-2.235 2.708-3.521 1.692-1.286 3.723-1.828 2.03-.541 3.994-.541 5.077 0 8.936.135 3.926.135 7.04.339 3.114.135 5.686.406v8.394h-18.683q-2.099 0-3.25 1.015-1.15 1.016-1.15 3.114v7.243l19.834.542v7.92l-19.835.542v6.904q0 1.76.542 2.776.61.948 1.557 1.354 1.015.338 2.098.338h18.887v8.394q-2.978.339-6.634.542-3.588.203-7.31.338-3.656.136-6.973.136zm27.392-.338v-50.093h20.715q2.978 0 5.55.744 2.573.677 4.536 2.437 1.963 1.76 3.046 4.874 1.151 3.114 1.151 7.988 0 3.453-.677 5.89t-1.828 3.993q-1.083 1.557-2.504 2.505-1.422.948-2.911 1.557l9.342 20.105h-10.222l-8.056-18.548h-1.895q-1.015-.068-2.099-.068h-2.166q-1.083 0-1.963-.067v18.683zm10.02-26.603h8.935q1.354 0 2.437-.339 1.083-.338 1.895-1.15.812-.88 1.219-2.302.473-1.422.473-3.656 0-2.098-.473-3.452-.407-1.422-1.219-2.166-.812-.813-1.895-1.084-1.083-.338-2.437-.338h-8.936zm30.235 26.603 5.822-50.093h9.612l11.508 38.382 11.44-38.382h9.545l5.89 50.093h-9.68l-4.333-36.893 1.557.135-9.816 36.758h-9.41l-9.95-36.758 1.692-.067-4.197 36.825zm71.123.339q-1.625 0-3.723-.339-2.099-.27-4.062-1.354-1.895-1.083-3.181-3.249-1.219-2.234-1.219-6.092v-27.958q0-3.317 1.016-5.55 1.015-2.235 2.707-3.521 1.693-1.286 3.723-1.828 2.031-.541 3.994-.541 5.077 0 8.936.135 3.926.135 7.04.339 3.114.135 5.686.406v8.394H576.99q-2.099 0-3.25 1.015-1.15 1.016-1.15 3.114v7.243l19.834.542v7.92l-19.834.542v6.904q0 1.76.541 2.776.61.948 1.557 1.354 1.016.338 2.099.338h18.886v8.394q-2.978.339-6.634.542-3.587.203-7.31.338-3.656.136-6.973.136zm27.393-.339v-50.093h20.714q2.979 0 5.551.744 2.572.677 4.535 2.437 1.964 1.76 3.047 4.874 1.15 3.114 1.15 7.988 0 3.453-.676 5.89-.677 2.437-1.828 3.993-1.083 1.557-2.505 2.505-1.421.948-2.91 1.557l9.341 20.105h-10.222l-8.055-18.548h-1.896q-1.015-.068-2.098-.068h-2.166q-1.084 0-1.964-.067v18.683zm10.018-26.603h8.936q1.354 0 2.437-.339 1.083-.338 1.895-1.15.813-.88 1.219-2.302.474-1.422.474-3.656 0-2.098-.474-3.452-.406-1.422-1.219-2.166-.812-.813-1.895-1.084-1.083-.338-2.437-.338h-8.936zm48.446 27.01q-4.4 0-7.785-1.016-3.317-1.015-5.686-3.723-2.302-2.708-3.52-7.717-1.15-5.077-1.15-13.133 0-7.785 1.218-12.726 1.286-5.01 3.655-7.717 2.37-2.776 5.754-3.859 3.385-1.083 7.65-1.083 3.384 0 6.295.406 2.979.338 5.348.88 2.37.474 3.994 1.083v7.785q-1.219-.27-3.317-.542-2.031-.27-4.671-.406-2.64-.203-5.551-.203-2.843 0-4.874.677-1.963.61-3.182 2.37-1.15 1.692-1.76 4.941-.541 3.25-.541 8.462 0 5.01.474 8.258.541 3.25 1.692 5.077 1.15 1.76 3.114 2.505 2.03.677 5.077.677 5.145 0 8.326-.203 3.25-.203 5.213-.474v7.717q-1.828.61-4.197 1.083-2.37.407-5.213.61-2.843.27-6.363.27zm18.796-.407 15.705-50.093h12.658l15.705 50.093h-10.424l-3.182-10.492h-17.059l-3.114 10.492zm15.772-19.496h12.32l-6.16-22zm32.944 19.496v-50.093h21.188q5.077 0 8.462 1.827 3.385 1.76 5.348 5.145 2.03 3.317 2.843 7.92.812 4.604.812 10.154 0 8.462-1.963 14.013-1.895 5.551-5.754 8.326-3.858 2.708-9.748 2.708zm10.019-9.003h10.154q3.114 0 4.941-1.76 1.828-1.828 2.64-5.416.88-3.587.88-8.868 0-4.873-.541-7.987-.542-3.182-1.625-4.942-1.015-1.76-2.64-2.437-1.557-.677-3.655-.677h-10.154zm54.538 9.41q-5.145 0-9.003-.948-3.859-1.016-6.5-3.656-2.571-2.708-3.858-7.717-1.286-5.01-1.286-13.065t1.286-13.065q1.354-5.077 3.927-7.785 2.572-2.707 6.43-3.723 3.86-1.015 9.004-1.015 5.145 0 9.003 1.015 3.859 1.016 6.431 3.723 2.572 2.708 3.859 7.785 1.286 5.01 1.286 13.065 0 8.056-1.286 13.065-1.287 5.01-3.859 7.717-2.572 2.64-6.43 3.656-3.86.947-9.004.947zm0-9.004q3.046 0 5.077-.677 2.03-.677 3.181-2.37 1.219-1.76 1.76-4.94.542-3.25.542-8.395 0-5.415-.541-8.665-.542-3.249-1.76-4.941-1.151-1.76-3.182-2.37-2.031-.609-5.077-.609-2.911 0-4.942.61-2.03.609-3.317 2.369-1.218 1.692-1.828 4.941-.541 3.25-.541 8.665 0 5.145.474 8.394.541 3.182 1.76 4.942 1.218 1.692 3.25 2.37 2.098.676 5.144.676z" style="font-weight:700;font-size:67.6939px;line-height:1;font-family:Exo;-inkscape-font-specification:'Exo Bold';text-align:center;letter-spacing:-.835595px;word-spacing:.352572px;text-anchor:middle;display:inline;fill:#f97e59;fill-opacity:1;stroke-width:2.82059;stroke-linecap:round;stroke-linejoin:round;paint-order:stroke fill markers" aria-label="SUPERMERCADO" transform="matrix(1.1244 0 0 1.1244 -124.046 -416.44)"/>
        <g style="display:inline" transform="matrix(1.1244 0 0 1.1244 -124.046 -416.44)">
            <path style="display:inline;fill:#fd8a77;fill-opacity:1;stroke-width:35;stroke-linecap:round;stroke-linejoin:round;paint-order:markers stroke fill" d="M899.703 504.25h82.047V773h-82.047zM128.25 504.25h74.268V773H128.25z"/>
            <path style="display:inline;fill:#e77864;fill-opacity:1;stroke:#e77864;stroke-width:.2;stroke-linecap:butt;stroke-linejoin:miter;stroke-dasharray:none;stroke-opacity:1;paint-order:markers stroke fill" d="M160.088 504.35v18.035h-31.736v.576h11.935v17.283h-11.935v.576h31.736v17.284h-31.736v.576h11.935v17.285h-11.935v.574h31.736v17.285h-31.736v.576h11.935v17.284h-11.935v.576h31.736v17.285h-31.736v.574h11.935v17.285h-11.935v.576h31.736v17.284h-31.736v.576h11.935v17.285h-11.935v.574h31.736v17.285h-31.736v.577h11.935v17.283h-11.935v.576h31.736v17.283h-31.736v.576h11.935v17.285h-11.935v.577h31.736v17.283h-31.736V773h64.046v-.576h-31.736V755.14h31.736v-.577h-11.937V737.28h11.937v-.576h-31.736V719.42h31.736v-.576h-11.937V701.56h11.937v-.577h-31.736V683.7h31.736v-.574h-11.937V665.84h11.937v-.576h-31.736V647.98h31.736v-.576h-11.937V630.12h11.937v-.574h-31.736V612.26h31.736v-.576h-11.937V594.4h11.937v-.576h-31.736V576.54h31.736v-.574h-11.937V558.68h11.937v-.576h-31.736V540.82h31.736v-.576h-11.937v-17.283h11.937v-.576h-31.736V504.35zm789.148 0v18.035H917.5v.576h11.936v17.283H917.5v.576h31.736v17.284H917.5v.576h11.936v17.285H917.5v.574h31.736v17.285H917.5v.576h11.936v17.284H917.5v.576h31.736v17.285H917.5v.574h11.936v17.285H917.5v.576h31.736v17.284H917.5v.576h11.936v17.285H917.5v.574h31.736v17.285H917.5v.577h11.936v17.283H917.5v.576h31.736v17.283H917.5v.576h11.936v17.285H917.5v.577h31.736v17.283H917.5V773h64.047v-.576H949.81V755.14h31.736v-.577h-11.938V737.28h11.938v-.576H949.81V719.42h31.736v-.576h-11.938V701.56h11.938v-.577H949.81V683.7h31.736v-.574h-11.938V665.84h11.938v-.576H949.81V647.98h31.736v-.576h-11.938V630.12h11.938v-.574H949.81V612.26h31.736v-.576h-11.938V594.4h11.938v-.576H949.81V576.54h31.736v-.574h-11.938V558.68h11.938v-.576H949.81V540.82h31.736v-.576h-11.938v-17.283h11.938v-.576H949.81V504.35zm-808.37 18.61h39.019v17.284h-39.02zm789.148 0h39.02v17.284h-39.02zm-789.149 35.72h39.02v17.285h-39.02zm789.149 0h39.02v17.285h-39.02zM140.865 594.4h39.02v17.284h-39.02zm789.149 0h39.02v17.284h-39.02zm-789.149 35.72h39.02v17.284h-39.02zm789.149 0h39.02v17.284h-39.02zm-789.149 35.72h19.223v.002h.574v-.002h19.223v17.285h-39.02zm789.149 0h19.222v.002h.575v-.002h19.222v17.285h-39.02zm-789.149 35.72h39.02v17.284h-39.02zm789.149 0h39.02v17.284h-39.02Zm-789.149 35.72h39.02v17.284h-39.02zm789.149 0h39.02v17.284h-39.02z"/>
            <path style="display:inline;fill:#f9daa3;fill-opacity:1;stroke-width:35;stroke-linecap:round;stroke-linejoin:round;paint-order:markers stroke fill" d="M192.5 504.25V773h367.633V525h176.453v248H917.5V504.25Z"/>
            <rect style="display:inline;fill:url(#b);stroke-width:35;stroke-linecap:round;stroke-linejoin:round;paint-order:markers stroke fill" width="889.358" height="26.176" x="110.321" y="478.348" ry="2.917"/>
        </g>
        <g style="display:inline">
            <path style="display:inline;fill:#d3e5fd;fill-opacity:1;stroke:none;stroke-width:6;stroke-linecap:round;stroke-linejoin:miter;stroke-dasharray:none;stroke-opacity:1;paint-order:markers fill stroke" d="M207.328 524.5h327.867v202.165H207.328z" transform="matrix(1.1244 0 0 1.1244 -124.046 -416.44)"/>
            <path style="display:inline;fill:none;fill-opacity:1;stroke:#9b633d;stroke-width:6;stroke-linecap:round;stroke-linejoin:miter;stroke-dasharray:none;stroke-opacity:1;paint-order:markers fill stroke" d="M207.328 524.5h327.867v202.165H207.328z" transform="matrix(1.1244 0 0 1.1244 -124.046 -416.44)"/>
            <path style="display:inline;fill:#bd825a;stroke-linecap:round;paint-order:stroke fill markers" d="M201.828 519v213.166h338.867V519Zm6 6h80.15v23.063h-80.15zm82.27 0h80.119v23.063h-80.12zm82.238 0h80.121v23.063h-80.121zm82.24 0h80.12v23.063h-80.12zm-246.748 27.115h80.15v174.051h-80.15zm82.27 0h80.119v174.051h-80.12zm82.238 0h80.121v174.051h-80.121zm82.24 0h80.12v174.051h-80.12z" transform="matrix(1.1244 0 0 1.1244 -124.046 -416.44)"/>
        </g>
        <g style="display:inline">
            <path style="display:inline;fill:#d3e5fd;fill-opacity:1;stroke:none;stroke-width:6;stroke-linecap:round;stroke-linejoin:miter;stroke-dasharray:none;stroke-opacity:1;paint-order:markers fill stroke" d="M394.165 525.004h141.03v201.661h-141.03z" transform="matrix(1.1244 0 0 1.1244 289.577 -416.44)"/>
            <path style="display:inline;fill:none;fill-opacity:1;stroke:#9b633d;stroke-width:6;stroke-linecap:round;stroke-linejoin:miter;stroke-dasharray:none;stroke-opacity:1;paint-order:markers fill stroke" d="M393.664 524.503h141.531v202.161H393.664z" transform="matrix(1.1244 0 0 1.1244 289.577 -416.44)"/>
            <path style="display:inline;fill:#bd825a;stroke-linecap:round;paint-order:markers fill stroke" d="M388.165 519.004v213.16h152.531v-213.16Zm6 6h69.205v23.058h-69.205zm71.324 0h69.207v23.058H465.49zm-71.324 27.111h69.205v174.05h-69.205zm71.324 0h69.207v174.05H465.49z" transform="matrix(1.1244 0 0 1.1244 289.577 -416.44)"/>
        </g>
        <g style="display:inline">
            <path style="display:inline;fill:#d3e5fd;fill-opacity:1;stroke:none;stroke-width:5;stroke-linecap:round;stroke-linejoin:miter;stroke-dasharray:none;stroke-opacity:1;paint-order:markers fill stroke" d="M560.133 525h176.453v23.063H560.133z" transform="matrix(1.1244 0 0 1.1244 -124.046 -416.44)"/>
            <path style="display:inline;fill:#9b633d;fill-opacity:1;stroke-linecap:round;paint-order:markers fill stroke" d="M354.775 521.5V773h6V554.615h171.453V773h6V521.5Zm6 6h171.453v18.063H360.775Z" transform="matrix(1.1244 0 0 1.1244 102.924 -416.44)"/>
            <path style="display:inline;fill:#bd825a;stroke-linecap:round;paint-order:markers fill stroke" d="M352.275 519v254h6V552.115h176.453V773h6V519Zm6 6h176.453v23.063H358.275Z" transform="matrix(1.1244 0 0 1.1244 102.924 -416.44)"/>
        </g>
        <g style="display:inline" transform="translate(0 -250)">
            <circle style="fill:#848484;fill-opacity:1;stroke:none;stroke-width:.05;stroke-linecap:round;stroke-linejoin:miter;stroke-dasharray:none;stroke-opacity:1;paint-order:markers fill stroke" cx="943.546" cy="431.247" r="18.827"/>
            <circle style="fill:#8e0000;fill-opacity:1;stroke:none;stroke-width:.0415493;stroke-linecap:round;stroke-linejoin:miter;stroke-dasharray:none;stroke-opacity:1;paint-order:markers fill stroke" cx="943.546" cy="431.247" r="15.645"/>
            <path style="fill:#ffc3c3;fill-opacity:1;stroke:none;stroke-width:.036385;stroke-linecap:round;stroke-linejoin:miter;stroke-dasharray:none;stroke-opacity:1;paint-order:markers fill stroke" d="M931.51 437.719a13.7 13.7 0 0 0 12.035 7.228 13.7 13.7 0 0 0 12.035-7.224 14.825 14.825 0 0 1-12.035 6.224 14.825 14.825 0 0 1-12.035-6.228z"/>
        </g>
    </g>
</svg>
