<?xml version="1.0" encoding="UTF-8" standalone="no"?>
<!-- Created with Inkscape (http://www.inkscape.org/) -->

<svg
   width="1000"
   height="1000"
   viewBox="0 0 1000 1000"
   version="1.1"
   id="svg1"
   inkscape:version="1.4 (86a8ad7, 2024-10-11)"
   sodipodi:docname="exp1 - IMG4 - inkscape.svg"
   xml:space="preserve"
   inkscape:export-filename="exp1 - IMG4 - imgPD.svg"
   inkscape:export-xdpi="96"
   inkscape:export-ydpi="96"
   xmlns:inkscape="http://www.inkscape.org/namespaces/inkscape"
   xmlns:sodipodi="http://sodipodi.sourceforge.net/DTD/sodipodi-0.dtd"
   xmlns:xlink="http://www.w3.org/1999/xlink"
   xmlns="http://www.w3.org/2000/svg"
   xmlns:svg="http://www.w3.org/2000/svg"><sodipodi:namedview
     id="namedview1"
     pagecolor="#505050"
     bordercolor="#eeeeee"
     borderopacity="1"
     inkscape:showpageshadow="0"
     inkscape:pageopacity="0"
     inkscape:pagecheckerboard="0"
     inkscape:deskcolor="#505050"
     inkscape:document-units="px"
     inkscape:zoom="0.70710678"
     inkscape:cx="505.58135"
     inkscape:cy="497.09606"
     inkscape:window-width="1920"
     inkscape:window-height="991"
     inkscape:window-x="-9"
     inkscape:window-y="-9"
     inkscape:window-maximized="1"
     inkscape:current-layer="g17"
     showguides="true"
     showgrid="false" /><defs
     id="defs1"><linearGradient
       id="linearGradient4"
       inkscape:collect="always"><stop
         style="stop-color:#723636;stop-opacity:1;"
         offset="0"
         id="stop4" /><stop
         style="stop-color:#572b2b;stop-opacity:1;"
         offset="1"
         id="stop5" /></linearGradient><filter
       style="color-interpolation-filters:sRGB;"
       inkscape:label="Drop Shadow"
       id="filter71"
       x="-0.08470587"
       y="-0.64812175"
       width="1.1794117"
       height="2.3727579"><feFlood
         result="flood"
         in="SourceGraphic"
         flood-opacity="0.286275"
         flood-color="rgb(0,0,0)"
         id="feFlood70" /><feGaussianBlur
         result="blur"
         in="SourceGraphic"
         stdDeviation="35.294117"
         id="feGaussianBlur70" /><feOffset
         result="offset"
         in="blur"
         dx="10.000000"
         dy="10.000000"
         id="feOffset70" /><feComposite
         result="comp1"
         operator="in"
         in="flood"
         in2="offset"
         id="feComposite70" /><feComposite
         result="comp2"
         operator="over"
         in="SourceGraphic"
         in2="comp1"
         id="feComposite71" /></filter><filter
       style="color-interpolation-filters:sRGB;"
       inkscape:label="Drop Shadow"
       id="filter73"
       x="-0.12358255"
       y="-0.68624636"
       width="1.2617547"
       height="2.4535079"><feFlood
         result="flood"
         in="SourceGraphic"
         flood-opacity="0.286275"
         flood-color="rgb(0,0,0)"
         id="feFlood71" /><feGaussianBlur
         result="blur"
         in="SourceGraphic"
         stdDeviation="35.294117"
         id="feGaussianBlur71" /><feOffset
         result="offset"
         in="blur"
         dx="10.000000"
         dy="10.000000"
         id="feOffset71" /><feComposite
         result="comp1"
         operator="in"
         in="flood"
         in2="offset"
         id="feComposite72" /><feComposite
         result="comp2"
         operator="over"
         in="SourceGraphic"
         in2="comp1"
         id="feComposite73" /></filter><filter
       style="color-interpolation-filters:sRGB;"
       inkscape:label="Drop Shadow"
       id="filter75"
       x="-0.093874071"
       y="-0.15606002"
       width="1.1988305"
       height="1.3305438"><feFlood
         result="flood"
         in="SourceGraphic"
         flood-opacity="0.286275"
         flood-color="rgb(0,0,0)"
         id="feFlood73" /><feGaussianBlur
         result="blur"
         in="SourceGraphic"
         stdDeviation="35.294117"
         id="feGaussianBlur73" /><feOffset
         result="offset"
         in="blur"
         dx="10.000000"
         dy="10.000000"
         id="feOffset73" /><feComposite
         result="comp1"
         operator="in"
         in="flood"
         in2="offset"
         id="feComposite74" /><feComposite
         result="comp2"
         operator="over"
         in="SourceGraphic"
         in2="comp1"
         id="feComposite75" /></filter><filter
       style="color-interpolation-filters:sRGB;"
       inkscape:label="Drop Shadow"
       id="filter79"
       x="-0.097484367"
       y="-0.10720771"
       width="1.215278"
       height="1.2367504"><feFlood
         result="flood"
         in="SourceGraphic"
         flood-opacity="0.286275"
         flood-color="rgb(0,0,0)"
         id="feFlood78" /><feGaussianBlur
         result="blur"
         in="SourceGraphic"
         stdDeviation="20.000000"
         id="feGaussianBlur78" /><feOffset
         result="offset"
         in="blur"
         dx="10.000000"
         dy="10.000000"
         id="feOffset78" /><feComposite
         result="comp1"
         operator="in"
         in="flood"
         in2="offset"
         id="feComposite78" /><feComposite
         result="comp2"
         operator="over"
         in="SourceGraphic"
         in2="comp1"
         id="feComposite79" /></filter><linearGradient
       inkscape:collect="always"
       xlink:href="#linearGradient4"
       id="linearGradient5"
       x1="192.70323"
       y1="487.03412"
       x2="192.87735"
       y2="499.2601"
       gradientUnits="userSpaceOnUse" /></defs><g
     inkscape:label="Camada 1"
     inkscape:groupmode="layer"
     id="layer1"
     style="display:inline"><g
       id="g17"
       style="display:inline"
       inkscape:label="Supermercado"
       transform="matrix(1.1244069,0,0,1.1244069,-124.04583,-166.44095)"><g
         id="g35"
         inkscape:label="Porta"
         style="display:inline"><g
           id="g31"
           inkscape:label="Porta Direita"
           style="display:inline"><rect
             style="display:inline;fill:#d3e5fd;fill-opacity:1;stroke:none;stroke-width:5;stroke-linecap:round;stroke-linejoin:miter;stroke-dasharray:none;stroke-opacity:1;paint-order:markers fill stroke"
             id="rect30"
             width="85.726997"
             height="218.38477"
             x="648.3598"
             y="554.61523"
             inkscape:label="PRight" /><rect
             style="display:inline;fill:#9b633d;fill-opacity:1;stroke:#9b633d;stroke-width:0.05;stroke-linecap:round;stroke-linejoin:miter;stroke-dasharray:none;stroke-opacity:1;paint-order:markers fill stroke"
             id="rect31"
             width="1.5"
             height="218.97852"
             x="648.3598"
             y="554.39648" /></g><g
           id="g33"
           inkscape:label="Porta Esquerda"
           style="display:inline"><rect
             style="display:inline;fill:#d3e5fd;fill-opacity:1;stroke:none;stroke-width:5;stroke-linecap:round;stroke-linejoin:miter;stroke-dasharray:none;stroke-opacity:1;paint-order:markers fill stroke"
             id="rect32"
             width="85.726997"
             height="218.38477"
             x="562.63281"
             y="554.61523"
             inkscape:label="PLeft" /><rect
             style="display:inline;fill:#9b633d;fill-opacity:1;stroke:#9b633d;stroke-width:0.05;stroke-linecap:round;stroke-linejoin:miter;stroke-dasharray:none;stroke-opacity:1;paint-order:markers fill stroke"
             id="rect33"
             width="1.5"
             height="218.97852"
             x="646.8598"
             y="554.02148" /></g></g><g
         id="g5"
         inkscape:label="Texto"><path
           id="rect35"
           style="display:inline;fill:#848484;fill-opacity:1;stroke:none;stroke-width:0.05;stroke-linecap:round;stroke-linejoin:miter;stroke-dasharray:none;stroke-opacity:1;paint-order:markers fill stroke"
           d="m 741.40234,456.96875 v 27.22266 h 7.77735 v -27.22266 z m -389.61718,1.76758 v 27.22265 h 7.77929 v -27.22265 z" /><path
           d="m 313.05448,462.98237 q -1.96312,0 -4.06163,-0.13539 -2.03082,-0.0677 -4.19703,-0.27078 -2.09851,-0.27077 -3.99394,-0.54155 -1.89542,-0.33847 -3.45238,-0.74463 v -7.92019 q 2.03081,0.20308 4.60318,0.33847 2.57237,0.13539 5.34782,0.20308 2.77545,0.0677 5.28012,0.0677 2.57237,0 4.40011,-0.40617 1.89543,-0.47385 2.91083,-1.55696 1.01541,-1.15079 1.01541,-3.11392 v -1.82773 q 0,-2.2339 -1.35387,-3.3847 -1.28619,-1.21849 -3.72317,-1.21849 h -4.26471 q -7.17556,0 -11.03411,-3.11392 -3.79086,-3.18161 -3.79086,-10.76333 v -2.43698 q 0,-7.31094 4.19702,-10.69563 4.19702,-3.3847 11.98182,-3.3847 2.77545,0 5.48321,0.27078 2.77545,0.27077 5.28012,0.67694 2.57237,0.33847 4.40011,0.74463 v 7.92019 q -3.11392,-0.20309 -6.97247,-0.40617 -3.79086,-0.20308 -7.04017,-0.20308 -2.30159,0 -4.12933,0.47386 -1.76004,0.40616 -2.70775,1.62465 -0.94772,1.21849 -0.94772,3.45239 v 1.35388 q 0,2.64006 1.48927,3.79086 1.48926,1.15079 4.4001,1.15079 h 4.94165 q 4.5355,0 7.44633,1.69235 2.97854,1.62465 4.40011,4.53549 1.48926,2.91084 1.48926,6.634 v 2.84315 q 0,5.88937 -2.2339,9.00329 -2.1662,3.11392 -6.09245,4.26471 -3.85855,1.08311 -9.07098,1.08311 z m 42.82702,-0.0677 q -4.12933,0 -7.71711,-0.67694 -3.58777,-0.74463 -6.29553,-2.50467 -2.64006,-1.82774 -4.12933,-5.00935 -1.42157,-3.24931 -1.42157,-8.25866 v -33.98233 h 10.0187 v 33.91464 q 0,2.77545 1.0831,4.4001 1.1508,1.62466 3.24931,2.36929 2.1662,0.74463 5.21243,0.74463 2.97853,0 5.07704,-0.74463 2.16621,-0.74463 3.24931,-2.36929 1.1508,-1.62465 1.1508,-4.4001 v -33.91464 h 10.08639 v 33.98233 q 0,5.00935 -1.48927,8.25866 -1.48927,3.18161 -4.12933,5.00935 -2.64006,1.76004 -6.22784,2.50467 -3.52008,0.67694 -7.7171,0.67694 z m 26.71587,-0.33847 v -50.09348 h 21.1205 q 2.43698,0 4.94166,0.60924 2.57236,0.54155 4.67088,2.30159 2.1662,1.69235 3.45238,5.14474 1.35388,3.45239 1.35388,9.13868 0,5.68628 -1.35388,9.20637 -1.28618,3.52008 -3.38469,5.34782 -2.09851,1.82773 -4.53549,2.43698 -2.43698,0.60924 -4.73857,0.60924 -1.21849,0 -2.84315,-0.0677 -1.62465,-0.13539 -3.317,-0.33847 -1.62465,-0.20308 -3.04623,-0.33847 -1.42157,-0.20308 -2.30159,-0.33847 v 16.38192 z m 10.0187,-24.30211 h 9.95101 q 1.76004,0 2.97853,-0.81232 1.28618,-0.88003 1.89543,-2.70776 0.60924,-1.89543 0.60924,-5.00935 0,-3.04623 -0.67694,-4.80627 -0.60924,-1.82773 -1.82773,-2.64006 -1.1508,-0.81233 -2.77545,-0.81233 h -10.15409 z m 43.36855,24.64058 q -1.62466,0 -3.72317,-0.33847 -2.09851,-0.27077 -4.06163,-1.35388 -1.89543,-1.0831 -3.18162,-3.2493 -1.21849,-2.2339 -1.21849,-6.09245 v -27.95759 q 0,-3.317 1.01541,-5.5509 1.01541,-2.23389 2.70776,-3.52008 1.69235,-1.28618 3.72316,-1.82773 2.03082,-0.54155 3.99394,-0.54155 5.07705,0 8.9356,0.13538 3.92624,0.13539 7.04016,0.33847 3.11392,0.13539 5.68629,0.40617 v 8.39404 h -18.68352 q -2.09851,0 -3.2493,1.01541 -1.1508,1.01541 -1.1508,3.11392 v 7.24325 l 19.83431,0.54155 v 7.92018 l -19.83431,0.54155 v 6.90478 q 0,1.76004 0.54155,2.77545 0.60925,0.94772 1.55696,1.35388 1.01541,0.33847 2.09851,0.33847 h 18.8866 v 8.39404 q -2.97853,0.33847 -6.634,0.54155 -3.58778,0.20309 -7.31094,0.33847 -3.65547,0.13539 -6.97247,0.13539 z m 27.39278,-0.33847 v -50.09348 h 20.71433 q 2.97853,0 5.5509,0.74463 2.57237,0.67694 4.53549,2.43698 1.96312,1.76004 3.04623,4.87396 1.15079,3.11392 1.15079,7.98788 0,3.45239 -0.67694,5.88937 -0.67693,2.43698 -1.82773,3.99394 -1.0831,1.55696 -2.50468,2.50467 -1.42157,0.94772 -2.91083,1.55696 l 9.34176,20.10509 h -10.22178 l -8.05558,-18.54813 q -0.81232,0 -1.89543,0 -1.01541,-0.0677 -2.09851,-0.0677 -1.0831,0 -2.1662,0 -1.08311,0 -1.96313,-0.0677 v 18.68351 z m 10.01869,-26.6037 h 8.9356 q 1.35388,0 2.43698,-0.33847 1.0831,-0.33847 1.89543,-1.1508 0.81233,-0.88002 1.21849,-2.30159 0.47386,-1.42157 0.47386,-3.65547 0,-2.09851 -0.47386,-3.45239 -0.40616,-1.42157 -1.21849,-2.1662 -0.81233,-0.81233 -1.89543,-1.08311 -1.0831,-0.33847 -2.43698,-0.33847 h -8.9356 z m 30.23595,26.6037 5.82167,-50.09348 h 9.61254 l 11.50796,38.38244 11.44027,-38.38244 h 9.54484 l 5.88937,50.09348 h -9.68023 l -4.33241,-36.89317 1.55696,0.13538 -9.81561,36.75779 h -9.40946 l -9.951,-36.75779 1.69235,-0.0677 -4.19702,36.82548 z m 71.12296,0.33847 q -1.62465,0 -3.72316,-0.33847 -2.09851,-0.27077 -4.06164,-1.35388 -1.89543,-1.0831 -3.18161,-3.2493 -1.21849,-2.2339 -1.21849,-6.09245 v -27.95759 q 0,-3.317 1.01541,-5.5509 1.01541,-2.23389 2.70775,-3.52008 1.69235,-1.28618 3.72317,-1.82773 2.03082,-0.54155 3.99394,-0.54155 5.07704,0 8.93559,0.13538 3.92625,0.13539 7.04017,0.33847 3.11392,0.13539 5.68629,0.40617 v 8.39404 H 576.9889 q -2.09851,0 -3.24931,1.01541 -1.15079,1.01541 -1.15079,3.11392 v 7.24325 l 19.83431,0.54155 v 7.92018 l -19.83431,0.54155 v 6.90478 q 0,1.76004 0.54155,2.77545 0.60924,0.94772 1.55696,1.35388 1.01541,0.33847 2.09851,0.33847 h 18.8866 v 8.39404 q -2.97853,0.33847 -6.63401,0.54155 -3.58777,0.20309 -7.31094,0.33847 -3.65547,0.13539 -6.97247,0.13539 z m 27.39277,-0.33847 v -50.09348 h 20.71433 q 2.97853,0 5.5509,0.74463 2.57237,0.67694 4.53549,2.43698 1.96312,1.76004 3.04623,4.87396 1.15079,3.11392 1.15079,7.98788 0,3.45239 -0.67694,5.88937 -0.67693,2.43698 -1.82773,3.99394 -1.0831,1.55696 -2.50467,2.50467 -1.42158,0.94772 -2.91084,1.55696 l 9.34176,20.10509 h -10.22178 l -8.05558,-18.54813 q -0.81232,0 -1.89543,0 -1.01541,-0.0677 -2.09851,-0.0677 -1.0831,0 -2.1662,0 -1.08311,0 -1.96313,-0.0677 v 18.68351 z m 10.01869,-26.6037 h 8.9356 q 1.35388,0 2.43698,-0.33847 1.0831,-0.33847 1.89543,-1.1508 0.81233,-0.88002 1.21849,-2.30159 0.47386,-1.42157 0.47386,-3.65547 0,-2.09851 -0.47386,-3.45239 -0.40616,-1.42157 -1.21849,-2.1662 -0.81233,-0.81233 -1.89543,-1.08311 -1.0831,-0.33847 -2.43698,-0.33847 h -8.9356 z m 48.44564,27.00987 q -4.4001,0 -7.7848,-1.01541 -3.317,-1.01541 -5.68629,-3.72317 -2.30159,-2.70775 -3.52008,-7.7171 -1.1508,-5.07704 -1.1508,-13.13262 0,-7.7848 1.21849,-12.72645 1.28619,-5.00935 3.65547,-7.71711 2.36929,-2.77545 5.75399,-3.85855 3.38469,-1.0831 7.64941,-1.0831 3.38469,0 6.29553,0.40616 2.97853,0.33847 5.34782,0.88002 2.36928,0.47386 3.99394,1.0831 v 7.7848 q -1.21849,-0.27077 -3.317,-0.54155 -2.03082,-0.27077 -4.67088,-0.40616 -2.64006,-0.20308 -5.5509,-0.20308 -2.84315,0 -4.87396,0.67694 -1.96313,0.60924 -3.18162,2.36928 -1.15079,1.69235 -1.76004,4.94166 -0.54155,3.2493 -0.54155,8.46174 0,5.00934 0.47386,8.25865 0.54155,3.24931 1.69235,5.07704 1.15079,1.76005 3.11392,2.50468 2.03081,0.67694 5.07704,0.67694 5.14473,0 8.32635,-0.20308 3.24931,-0.20309 5.21243,-0.47386 v 7.7171 q -1.82774,0.60925 -4.19702,1.08311 -2.36929,0.40616 -5.21243,0.60924 -2.84315,0.27078 -6.36323,0.27078 z m 18.79564,-0.40617 15.70499,-50.09348 h 12.65876 l 15.70498,50.09348 H 713.05161 L 709.87,452.08365 h -17.05886 l -3.11392,10.49255 z m 15.77268,-19.49584 h 12.32029 l -6.16014,-22.00052 z m 32.94363,19.49584 v -50.09348 h 21.1882 q 5.07704,0 8.46173,1.82773 3.3847,1.76004 5.34782,5.14474 2.03082,3.317 2.84315,7.92018 0.81232,4.60319 0.81232,10.15409 0,8.46174 -1.96312,14.01264 -1.89543,5.5509 -5.75398,8.32635 -3.85855,2.70775 -9.74792,2.70775 z m 10.0187,-9.00329 h 10.15409 q 3.11392,0 4.94165,-1.76004 1.82774,-1.82773 2.64006,-5.41551 0.88002,-3.58778 0.88002,-8.8679 0,-4.87396 -0.54155,-7.98788 -0.54155,-3.18161 -1.62465,-4.94166 -1.01541,-1.76004 -2.64006,-2.43698 -1.55696,-0.67694 -3.65547,-0.67694 h -10.15409 z m 54.53805,9.40946 q -5.14474,0 -9.00329,-0.94772 -3.85855,-1.01541 -6.49861,-3.65547 -2.57237,-2.70776 -3.85856,-7.7171 -1.28618,-5.00935 -1.28618,-13.06493 0,-8.05557 1.28618,-13.06492 1.35388,-5.07704 3.92625,-7.7848 2.57237,-2.70775 6.43092,-3.72316 3.85855,-1.01541 9.00329,-1.01541 5.14474,0 9.00329,1.01541 3.85855,1.01541 6.43092,3.72316 2.57237,2.70776 3.85855,7.7848 1.28619,5.00935 1.28619,13.06492 0,8.05558 -1.28619,13.06493 -1.28618,5.00934 -3.85855,7.7171 -2.57237,2.64006 -6.43092,3.65547 -3.85855,0.94772 -9.00329,0.94772 z m 0,-9.00329 q 3.04622,0 5.07704,-0.67694 2.03082,-0.67694 3.18162,-2.36929 1.21849,-1.76004 1.76004,-4.94165 0.54155,-3.24931 0.54155,-8.39405 0,-5.41551 -0.54155,-8.66482 -0.54155,-3.2493 -1.76004,-4.94165 -1.1508,-1.76004 -3.18162,-2.36929 -2.03082,-0.60924 -5.07704,-0.60924 -2.91084,0 -4.94166,0.60924 -2.03081,0.60925 -3.317,2.36929 -1.21849,1.69235 -1.82773,4.94165 -0.54155,3.24931 -0.54155,8.66482 0,5.14474 0.47385,8.39405 0.54156,3.18161 1.76005,4.94165 1.21849,1.69235 3.2493,2.36929 2.09851,0.67694 5.14474,0.67694 z"
           id="text1"
           style="font-weight:bold;font-size:67.6939px;line-height:1;font-family:Exo;-inkscape-font-specification:'Exo Bold';text-align:center;letter-spacing:-0.835595px;word-spacing:0.352572px;text-anchor:middle;display:inline;fill:#f97e59;fill-opacity:1;stroke-width:2.82059;stroke-linecap:round;stroke-linejoin:round;paint-order:stroke fill markers"
           aria-label="SUPERMERCADO"
           inkscape:label="SupermercadoTexto" /></g><g
         id="g2"
         style="display:inline"><rect
           style="display:inline;fill:#fd8a77;fill-opacity:1;stroke-width:35;stroke-linecap:round;stroke-linejoin:round;paint-order:markers stroke fill"
           id="rect1"
           width="82.046501"
           height="268.75"
           x="899.70349"
           y="504.25"
           inkscape:label="Parede Tijolo 2" /><rect
           style="display:inline;fill:#fd8a77;fill-opacity:1;stroke-width:35;stroke-linecap:round;stroke-linejoin:round;paint-order:markers stroke fill"
           id="rect29"
           width="74.268333"
           height="268.75"
           x="128.25"
           y="504.25"
           inkscape:label="Parede Tijolo 1" /><path
           id="rect4"
           style="display:inline;fill:#e77864;fill-opacity:1;stroke:#e77864;stroke-width:0.2;stroke-linecap:butt;stroke-linejoin:miter;stroke-dasharray:none;stroke-opacity:1;paint-order:markers stroke fill"
           d="m 160.08789,504.34961 v 18.03516 h -31.73633 v 0.57617 h 11.93555 v 17.2832 h -11.93555 v 0.57617 h 31.73633 v 17.28321 h -31.73633 v 0.57617 h 11.93555 v 17.28515 h -11.93555 v 0.57422 h 31.73633 v 17.28516 h -31.73633 v 0.57617 h 11.93555 v 17.2832 h -11.93555 v 0.57618 h 31.73633 v 17.28515 h -31.73633 v 0.57422 h 11.93555 v 17.28516 h -11.93555 v 0.57617 h 31.73633 v 17.2832 h -31.73633 v 0.57617 h 11.93555 V 683.125 h -11.93555 v 0.57422 h 31.73633 v 17.28516 h -31.73633 v 0.57617 h 11.93555 v 17.2832 h -11.93555 v 0.57617 h 31.73633 v 17.2832 h -31.73633 v 0.57618 h 11.93555 v 17.28515 h -11.93555 v 0.57617 h 31.73633 v 17.28321 H 128.35156 V 773 h 64.04688 v -0.57617 h -31.73633 v -17.28321 h 31.73633 v -0.57617 h -11.9375 V 737.2793 h 11.9375 v -0.57618 h -31.73633 v -17.2832 h 31.73633 v -0.57617 h -11.9375 v -17.2832 h 11.9375 v -0.57617 h -31.73633 v -17.28516 h 31.73633 V 683.125 h -11.9375 v -17.28516 h 11.9375 v -0.57617 h -31.73633 v -17.2832 h 31.73633 v -0.57617 h -11.9375 v -17.28516 h 11.9375 v -0.57422 h -31.73633 v -17.28515 h 31.73633 v -0.57618 h -11.9375 v -17.2832 h 11.9375 v -0.57617 h -31.73633 v -17.28516 h 31.73633 v -0.57422 h -11.9375 v -17.28515 h 11.9375 v -0.57617 h -31.73633 v -17.28321 h 31.73633 v -0.57617 h -11.9375 v -17.2832 h 11.9375 v -0.57617 h -31.73633 v -18.03516 z m 789.14844,0 v 18.03516 H 917.5 v 0.57617 h 11.93555 v 17.2832 H 917.5 v 0.57617 h 31.73633 v 17.28321 H 917.5 v 0.57617 h 11.93555 v 17.28515 H 917.5 v 0.57422 h 31.73633 v 17.28516 H 917.5 v 0.57617 h 11.93555 v 17.2832 H 917.5 v 0.57618 h 31.73633 v 17.28515 H 917.5 v 0.57422 h 11.93555 V 647.4043 H 917.5 v 0.57617 h 31.73633 v 17.2832 H 917.5 v 0.57617 h 11.93555 V 683.125 H 917.5 v 0.57422 h 31.73633 v 17.28516 H 917.5 v 0.57617 h 11.93555 v 17.2832 H 917.5 v 0.57617 h 31.73633 v 17.2832 H 917.5 v 0.57618 h 11.93555 v 17.28515 H 917.5 v 0.57617 h 31.73633 v 17.28321 H 917.5 V 773 h 64.04688 v -0.57617 h -31.73633 v -17.28321 h 31.73633 v -0.57617 h -11.9375 V 737.2793 h 11.9375 v -0.57618 h -31.73633 v -17.2832 h 31.73633 v -0.57617 h -11.9375 v -17.2832 h 11.9375 v -0.57617 h -31.73633 v -17.28516 h 31.73633 V 683.125 h -11.9375 v -17.28516 h 11.9375 v -0.57617 h -31.73633 v -17.2832 h 31.73633 v -0.57617 h -11.9375 v -17.28516 h 11.9375 v -0.57422 h -31.73633 v -17.28515 h 31.73633 v -0.57618 h -11.9375 v -17.2832 h 11.9375 v -0.57617 h -31.73633 v -17.28516 h 31.73633 v -0.57422 h -11.9375 v -17.28515 h 11.9375 v -0.57617 h -31.73633 v -17.28321 h 31.73633 v -0.57617 h -11.9375 v -17.2832 h 11.9375 v -0.57617 h -31.73633 v -18.03516 z m -808.3711,18.61133 h 39.01954 v 17.2832 h -39.01954 z m 789.14844,0 h 39.01953 v 17.2832 h -39.01953 z m -789.14844,35.71875 h 39.01954 v 17.28515 h -39.01954 z m 789.14844,0 h 39.01953 v 17.28515 h -39.01953 z m -789.14844,35.7207 h 39.01954 v 17.2832 h -39.01954 z m 789.14844,0 h 39.01953 v 17.2832 h -39.01953 z m -789.14844,35.71875 h 39.01954 v 17.28516 h -39.01954 z m 789.14844,0 h 39.01953 v 17.28516 h -39.01953 z m -789.14844,35.7207 h 19.22266 v 0.002 h 0.57422 v -0.002 h 19.22266 V 683.125 h -39.01954 z m 789.14844,0 h 19.22266 v 0.002 h 0.57422 v -0.002 H 969.0332 V 683.125 h -39.01953 z m -789.14844,35.72071 h 39.01954 v 17.2832 h -39.01954 z m 789.14844,0 h 39.01953 v 17.2832 H 930.01367 Z M 140.86523,737.2793 h 39.01954 v 17.28515 h -39.01954 z m 789.14844,0 h 39.01953 v 17.28515 h -39.01953 z"
           inkscape:label="Tijolo" /><path
           id="rect2"
           style="display:inline;fill:#f9daa3;fill-opacity:1;stroke-width:35;stroke-linecap:round;stroke-linejoin:round;paint-order:markers stroke fill"
           inkscape:label="Parede Principal"
           d="M 192.5,504.25 V 773 H 560.13281 V 525 H 736.58594 V 773 H 917.5 V 504.25 Z" /><rect
           style="display:inline;fill:url(#linearGradient5);stroke-width:35;stroke-linecap:round;stroke-linejoin:round;paint-order:markers stroke fill"
           id="rect3"
           width="889.35773"
           height="26.175709"
           x="110.32114"
           y="478.34836"
           ry="2.9168155"
           inkscape:label="Telhado" /></g><g
         id="g12"
         inkscape:label="Janela 1"
         style="display:inline"><rect
           style="display:inline;fill:#d3e5fd;fill-opacity:1;stroke:none;stroke-width:6;stroke-linecap:round;stroke-linejoin:miter;stroke-dasharray:none;stroke-opacity:1;paint-order:markers fill stroke"
           id="rect6"
           width="327.867"
           height="202.16499"
           x="207.32825"
           y="524.50018"
           inkscape:label="Vidro" /><rect
           style="display:inline;fill:none;fill-opacity:1;stroke:#9b633d;stroke-width:6;stroke-linecap:round;stroke-linejoin:miter;stroke-dasharray:none;stroke-opacity:1;paint-order:markers fill stroke"
           id="rect12"
           width="327.867"
           height="202.16499"
           x="207.32825"
           y="524.50018"
           inkscape:label="Moldura int" /><path
           id="rect7"
           style="display:inline;fill:#bd825a;stroke-linecap:round;paint-order:stroke fill markers"
           d="M 201.82812,519 V 732.16602 H 540.69531 V 519 Z m 6,6 h 80.1504 v 23.0625 h -80.1504 z m 82.26954,0 h 80.11914 v 23.0625 h -80.11914 z m 82.23828,0 h 80.12109 v 23.0625 h -80.12109 z m 82.24023,0 h 80.11914 v 23.0625 h -80.11914 z m -246.74805,27.11523 h 80.1504 v 174.05079 h -80.1504 z m 82.26954,0 h 80.11914 v 174.05079 h -80.11914 z m 82.23828,0 h 80.12109 v 174.05079 h -80.12109 z m 82.24023,0 h 80.11914 v 174.05079 h -80.11914 z"
           inkscape:label="Moldura ext" /></g><g
         id="g14"
         inkscape:label="Janela 2"
         transform="translate(367.85857)"
         style="display:inline"><rect
           style="display:inline;fill:#d3e5fd;fill-opacity:1;stroke:none;stroke-width:6;stroke-linecap:round;stroke-linejoin:miter;stroke-dasharray:none;stroke-opacity:1;paint-order:markers fill stroke"
           id="rect13"
           width="141.03038"
           height="201.66125"
           x="394.16486"
           y="525.00391"
           inkscape:label="Vidro" /><rect
           style="display:inline;fill:none;fill-opacity:1;stroke:#9b633d;stroke-width:6;stroke-linecap:round;stroke-linejoin:miter;stroke-dasharray:none;stroke-opacity:1;paint-order:markers fill stroke"
           id="rect15"
           width="141.53101"
           height="202.161"
           x="393.66434"
           y="524.50305" /><path
           id="rect16"
           style="display:inline;fill:#bd825a;stroke-linecap:round;paint-order:markers fill stroke"
           d="M 388.16487,519.00391 V 732.16406 H 540.69612 V 519.00391 Z m 6,6 h 69.20508 v 23.05859 h -69.20508 z m 71.32422,0 h 69.20703 v 23.05859 h -69.20703 z m -71.32422,27.11132 h 69.20508 v 174.04883 h -69.20508 z m 71.32422,0 h 69.20703 v 174.04883 h -69.20703 z" /></g><g
         id="g23"
         inkscape:label="MolduraPorta"
         style="display:inline"><rect
           style="display:inline;fill:#d3e5fd;fill-opacity:1;stroke:none;stroke-width:5;stroke-linecap:round;stroke-linejoin:miter;stroke-dasharray:none;stroke-opacity:1;paint-order:markers fill stroke"
           id="rect23"
           width="176.45312"
           height="23.0625"
           x="560.13281"
           y="525"
           inkscape:label="Janela Superior" /><path
           id="rect17"
           style="display:inline;fill:#9b633d;fill-opacity:1;stroke-linecap:round;paint-order:markers fill stroke"
           d="M 354.77527,521.5 V 773 h 6 V 554.61523 H 532.2284 V 773 h 6 V 521.5 Z m 6,6 H 532.2284 v 18.0625 H 360.77527 Z"
           transform="translate(201.85754)"
           inkscape:label="Moldura ext" /><path
           id="rect18"
           style="display:inline;fill:#bd825a;stroke-linecap:round;paint-order:markers fill stroke"
           d="m 352.27527,519 v 254 h 6 V 552.11523 H 534.7284 V 773 h 6 V 519 Z m 6,6 H 534.7284 v 23.0625 H 358.27527 Z"
           transform="translate(201.85754)"
           inkscape:label="Moldura ext" /></g><g
         id="g3"
         inkscape:label="Alarme"
         style="display:inline"
         transform="matrix(0.88935776,0,0,0.88935776,110.32112,148.02555)"><circle
           style="fill:#848484;fill-opacity:1;stroke:none;stroke-width:0.05;stroke-linecap:round;stroke-linejoin:miter;stroke-dasharray:none;stroke-opacity:1;paint-order:markers fill stroke"
           id="path36"
           cx="943.54559"
           cy="431.24677"
           r="18.826717" /><circle
           style="fill:#8e0000;fill-opacity:1;stroke:none;stroke-width:0.0415493;stroke-linecap:round;stroke-linejoin:miter;stroke-dasharray:none;stroke-opacity:1;paint-order:markers fill stroke"
           id="circle36"
           cx="943.54559"
           cy="431.24677"
           r="15.644736" /><circle
           style="display:none;fill:#ff0404;fill-opacity:1;stroke:none;stroke-width:0.0415493;stroke-linecap:round;stroke-linejoin:miter;stroke-dasharray:none;stroke-opacity:1;paint-order:markers fill stroke"
           id="circle4"
           cx="943.54559"
           cy="431.24677"
           r="15.644736" /><path
           id="circle37"
           style="fill:#ffc3c3;fill-opacity:1;stroke:none;stroke-width:0.036385;stroke-linecap:round;stroke-linejoin:miter;stroke-dasharray:none;stroke-opacity:1;paint-order:markers fill stroke"
           d="m 931.50977,437.71875 a 13.700192,13.700192 0 0 0 12.03515,7.22852 13.700192,13.700192 0 0 0 12.03516,-7.22461 14.825192,14.825192 0 0 1 -12.03516,6.22461 14.825192,14.825192 0 0 1 -12.03515,-6.22852 z" /></g></g></g></svg>
