<svg width="1350" height="850" xml:space="preserve" xmlns:xlink="http://www.w3.org/1999/xlink" xmlns="http://www.w3.org/2000/svg">
    <defs>
        <linearGradient id="b">
            <stop style="stop-color:#e40202;stop-opacity:.54182273" offset="0"/>
            <stop style="stop-color:#e40202;stop-opacity:0" offset="1"/>
        </linearGradient>
        <linearGradient id="a">
            <stop style="stop-color:#97a26c;stop-opacity:1" offset="0"/>
            <stop style="stop-color:#deb111;stop-opacity:1" offset=".204"/>
            <stop style="stop-color:#f2001d;stop-opacity:1" offset="1"/>
        </linearGradient>
        <linearGradient xlink:href="#a" id="c" x1="5.25" y1="97.387" x2="112.68" y2="28.84" gradientUnits="userSpaceOnUse"/>
        <radialGradient xlink:href="#b" id="d" cx="379.167" cy="701.815" fx="379.167" fy="701.815" r="75.01" gradientTransform="matrix(1 0 0 1.09451 2.744 -29.74)" gradientUnits="userSpaceOnUse"/>
    </defs>
    <g style="display:inline">
        <g style="display:inline;opacity:1;fill:none">
            <path style="opacity:1;fill:none;fill-opacity:1;stroke:#000;stroke-width:5;stroke-linecap:round;stroke-linejoin:round;stroke-dasharray:none;stroke-opacity:1;paint-order:markers fill stroke" d="M379.596 404.271c-12.113 7.545-25.12 7.262-37.286-6.385" transform="translate(146.283 -45.954)"/>
            <path style="display:inline;opacity:1;fill:none;fill-opacity:1;stroke:#000;stroke-width:4;stroke-linecap:round;stroke-linejoin:round;stroke-dasharray:none;stroke-opacity:1;paint-order:markers fill stroke" d="M367.238 353.978c.366 7.298 4.126 12.466 7.196 16.575 2.466 3.57 6.504 7.193 1.213 11.886-3.044 2.862-8.608 3.247-13.503 1.697" transform="translate(146.283 -45.954)"/>
            <path style="display:inline;opacity:1;fill:#1c1627;stroke-width:6.36305;stroke-linecap:round;stroke-linejoin:round;paint-order:markers fill stroke" d="M419.594 304.213a10.512 5.902 87.02 0 0-5.346 10.805 10.512 5.902 87.02 0 0 6.44 10.191 10.512 5.902 87.02 0 0 5.346-10.805 10.512 5.902 87.02 0 0-6.44-10.191zm-45.792 5.41a10.512 5.902 90 0 0-5.902 10.512 10.512 5.902 90 0 0 5.902 10.512 10.512 5.902 90 0 0 5.903-10.512 10.512 5.902 90 0 0-5.903-10.513z" transform="rotate(6.08 505.81 1354.303)"/>
            <path style="display:inline;opacity:1;fill:none;fill-opacity:1;stroke:#000;stroke-width:5;stroke-linecap:round;stroke-linejoin:round;stroke-dasharray:none;stroke-opacity:1;paint-order:markers fill stroke" d="M379.335 331.565c6.375-1.882 11.702-1.008 16.014 2.537M323.385 338.075c10.125-9.955 17.624-8.138 22.765-5.32" transform="translate(146.283 -45.954)"/>
            <g transform="matrix(.16797 0 0 .16797 448.981 43.762)" style="display:inline;opacity:1;fill:none">
                <circle style="fill:#f7b239" cx="256.004" cy="256.004" r="256.004"/>
                <path style="fill:#e09b2d" d="M121.499 390.501C29.407 298.407 22.15 153.608 99.723 53.204A258.273 258.273 0 0 0 74.98 74.981c-99.974 99.974-99.974 262.065 0 362.038 99.974 99.973 262.065 99.974 362.038 0a258.428 258.428 0 0 0 21.777-24.743c-100.403 77.574-245.202 70.317-337.296-21.775z"/>
                <path style="fill:#e09b2d" d="M256.001 406.199a168.442 168.442 0 0 1-45.475-6.255c-5.045-1.414-7.989-6.652-6.575-11.699 1.414-5.045 6.652-7.992 11.698-6.575a149.455 149.455 0 0 0 80.706 0c5.049-1.412 10.283 1.53 11.698 6.575 1.414 5.045-1.53 10.283-6.575 11.698a168.446 168.446 0 0 1-45.477 6.256z"/>
                <path style="fill:#4d4d4d" d="M384.701 297.195c-70.969 70.966-186.441 70.964-257.402 0a9.49 9.49 0 0 0-13.42 0c-3.706 3.706-3.706 9.714 0 13.418C153.067 349.8 204.524 369.387 256 369.387c51.463 0 102.942-19.596 142.121-58.774 3.706-3.706 3.706-9.714 0-13.418-3.706-3.705-9.713-3.707-13.42 0zM142.674 231.083c19.358 0 35.107-15.749 35.107-35.107 0-19.358-15.749-35.107-35.107-35.107-19.358 0-35.107 15.749-35.107 35.107 0 19.358 15.749 35.107 35.107 35.107zM369.326 160.87c-19.358 0-35.107 15.749-35.107 35.107 0 19.358 15.749 35.107 35.107 35.107 19.358 0 35.107-15.749 35.107-35.107 0-19.358-15.749-35.107-35.107-35.107z"/>
            </g>
        </g>
    </g>
</svg>
