<svg width="1350" height="850" xml:space="preserve" xmlns:xlink="http://www.w3.org/1999/xlink" xmlns="http://www.w3.org/2000/svg">
    <defs>
        <linearGradient id="b">
            <stop style="stop-color:#e40202;stop-opacity:.54182273" offset="0"/>
            <stop style="stop-color:#e40202;stop-opacity:0" offset="1"/>
        </linearGradient>
        <linearGradient id="a">
            <stop style="stop-color:#97a26c;stop-opacity:1" offset="0"/>
            <stop style="stop-color:#deb111;stop-opacity:1" offset=".204"/>
            <stop style="stop-color:#f2001d;stop-opacity:1" offset="1"/>
        </linearGradient>
        <linearGradient xlink:href="#a" id="c" x1="5.25" y1="97.387" x2="112.68" y2="28.84" gradientUnits="userSpaceOnUse"/>
        <radialGradient xlink:href="#b" id="d" cx="379.167" cy="701.815" fx="379.167" fy="701.815" r="75.01" gradientTransform="matrix(1 0 0 1.09451 2.744 -29.74)" gradientUnits="userSpaceOnUse"/>
    </defs>
    <g style="display:inline">
        <path style="display:inline;opacity:1;fill:none;fill-opacity:1;stroke:#000;stroke-width:5.70889;stroke-linecap:round;stroke-linejoin:round;stroke-dasharray:none;stroke-opacity:1;paint-order:markers fill stroke" d="M169.038 391.194c12.266-6.38 24.808-5.133 35.538 8.96" transform="translate(148.286 -46.004)"/>
        <path style="display:inline;fill:none;fill-opacity:1;stroke:#000;stroke-width:4;stroke-linecap:round;stroke-linejoin:round;stroke-dasharray:none;stroke-opacity:1;paint-order:markers fill stroke" d="M190.04 371.277c4.824 2.643 14.882 3.53 19.554-1.221 2.667-2.713 5.427-8.395 1.029-13.758-4.398-5.364-9.1-10.23-14.293-24.013" transform="translate(148.286 -46.004)"/>
        <path style="display:inline;fill:#1c1427;stroke-width:6.46635;stroke-linecap:round;stroke-linejoin:round;paint-order:markers fill stroke" d="M166.95 326.69a6.238 10.39 0 0 0-6.236 10.392 6.238 10.39 0 0 0 6.236 10.39 6.238 10.39 0 0 0 6.239-10.39 6.238 10.39 0 0 0-6.239-10.393zm46.768.458a6.238 10.39 0 0 0-6.238 10.39 6.238 10.39 0 0 0 6.238 10.391 6.238 10.39 0 0 0 6.238-10.39 6.238 10.39 0 0 0-6.238-10.39z" transform="translate(148.286 -46.004)"/>
        <path style="fill:none;fill-opacity:1;stroke:#000;stroke-width:5;stroke-linecap:round;stroke-linejoin:round;stroke-dasharray:none;stroke-opacity:1;paint-order:markers fill stroke" d="M207.151 292.081c4.756.111 10.825 1.037 16.562 10.042" transform="translate(148.286 -46.004)"/>
        <path style="display:inline;fill:none;fill-opacity:1;stroke:#000;stroke-width:5;stroke-linecap:round;stroke-linejoin:round;stroke-dasharray:none;stroke-opacity:1;paint-order:markers fill stroke" d="M149.063 302.335c3.684-5.673 8.738-10.476 19.259-10.675" transform="translate(148.286 -46.004)"/>
        <g transform="matrix(.16797 0 0 .16797 269.003 43.762)" style="display:inline;opacity:1;fill:none">
            <circle style="fill:#f7b239" cx="256.004" cy="256.004" r="256.004"/>
            <path style="fill:#e09b2d" d="M121.499 390.501C29.407 298.407 22.15 153.608 99.723 53.204A258.273 258.273 0 0 0 74.98 74.981c-99.974 99.974-99.974 262.065 0 362.038 99.974 99.973 262.065 99.974 362.038 0a258.428 258.428 0 0 0 21.777-24.743c-100.403 77.574-245.202 70.317-337.296-21.775z"/>
            <path style="fill:#e09b2d" d="M288.234 367.985a9.458 9.458 0 0 1-4.394-1.084c-8.513-4.457-18.142-6.814-27.845-6.814-9.699 0-19.324 2.356-27.836 6.813-4.639 2.432-10.376.639-12.808-4.004-2.43-4.642-.638-10.377 4.004-12.807 11.218-5.874 23.887-8.979 36.64-8.979 12.755 0 25.428 3.105 36.647 8.979 4.643 2.43 6.436 8.165 4.005 12.807a9.485 9.485 0 0 1-8.413 5.089z"/>
            <path style="fill:#4d4d4d" d="M257.185 302.041c-39.121 0-75.902 15.235-103.564 42.898-3.706 3.706-3.706 9.713 0 13.418a9.49 9.49 0 0 0 13.42 0c24.077-24.078 56.092-37.34 90.145-37.34s66.068 13.261 90.145 37.34a9.46 9.46 0 0 0 6.71 2.78 9.457 9.457 0 0 0 6.71-2.78c3.706-3.706 3.706-9.713 0-13.418-27.664-27.663-64.445-42.898-103.566-42.898zM158.362 132.143a9.489 9.489 0 0 0-9.489-9.489 9.488 9.488 0 0 0-9.489 9.489c0 27.852-22.659 50.513-50.513 50.513a9.488 9.488 0 0 0-9.489 9.489 9.489 9.489 0 0 0 9.489 9.489c38.318-.002 69.491-31.174 69.491-69.491zM423.128 182.654c-27.854 0-50.513-22.659-50.513-50.513a9.489 9.489 0 0 0-9.489-9.489 9.488 9.488 0 0 0-9.489 9.489c0 38.317 31.173 69.49 69.49 69.49a9.488 9.488 0 0 0 9.489-9.489c.001-5.239-4.247-9.488-9.488-9.488zM177.781 229.019c0-19.358-15.749-35.107-35.107-35.107-19.358 0-35.107 15.749-35.107 35.107 0 19.358 15.749 35.107 35.107 35.107 19.358 0 35.107-15.749 35.107-35.107zM369.326 193.912c-19.358 0-35.107 15.749-35.107 35.107 0 19.358 15.749 35.107 35.107 35.107 19.358 0 35.107-15.749 35.107-35.107 0-19.358-15.749-35.107-35.107-35.107z"/>
        </g>
    </g>
</svg>
